<svg id="svg" version="1.1" xmlns="http://www.w3.org/2000/svg" xmlns:xlink="http://www.w3.org/1999/xlink" width="400" height="156" viewBox="0, 0, 400,156"><g id="svgg"><path id="path0" d="M313.820 39.847 C 313.461 40.221,313.167 40.661,313.167 40.824 C 313.167 40.988,312.998 41.333,312.792 41.591 C 312.421 42.055,312.146 42.530,311.333 44.108 C 311.104 44.553,310.812 45.026,310.685 45.160 C 310.558 45.294,310.344 45.669,310.210 45.993 C 310.076 46.318,309.843 46.722,309.692 46.892 C 309.408 47.210,309.000 47.942,308.263 49.458 C 308.029 49.940,307.779 50.333,307.708 50.333 C 307.637 50.333,307.442 50.652,307.275 51.042 C 307.107 51.431,306.837 51.900,306.673 52.083 C 306.509 52.267,306.286 52.692,306.179 53.028 C 306.071 53.365,305.864 53.739,305.719 53.859 C 305.573 53.980,305.309 54.380,305.132 54.748 C 304.590 55.870,304.028 56.860,303.769 57.145 C 303.634 57.295,303.379 57.755,303.201 58.169 C 303.024 58.583,302.760 59.020,302.615 59.141 C 302.469 59.261,302.261 59.635,302.151 59.972 C 302.041 60.308,301.775 60.795,301.559 61.054 C 301.343 61.314,301.167 61.622,301.167 61.740 C 301.167 61.858,301.019 62.143,300.838 62.373 C 300.449 62.868,299.818 63.955,299.314 65.000 C 299.115 65.412,298.776 65.962,298.560 66.221 C 298.343 66.480,298.167 66.786,298.167 66.900 C 298.167 67.014,297.944 67.402,297.671 67.762 C 297.399 68.122,297.174 68.534,297.171 68.677 C 297.169 68.820,297.014 69.101,296.828 69.301 C 296.642 69.501,296.344 70.002,296.167 70.416 C 295.990 70.829,295.775 71.167,295.688 71.167 C 295.602 71.167,295.413 71.513,295.269 71.936 C 295.125 72.359,294.818 72.880,294.587 73.095 C 294.356 73.309,294.167 73.628,294.167 73.803 C 294.167 73.978,293.998 74.333,293.792 74.591 C 293.392 75.091,292.908 75.948,292.337 77.167 C 292.143 77.579,291.911 78.051,291.821 78.214 C 291.703 78.428,291.728 78.615,291.911 78.876 C 292.052 79.077,292.169 79.355,292.171 79.495 C 292.174 79.635,292.399 80.045,292.671 80.405 C 292.944 80.765,293.167 81.179,293.167 81.326 C 293.167 81.472,293.392 81.839,293.667 82.140 C 293.942 82.441,294.167 82.827,294.167 82.997 C 294.167 83.168,294.343 83.520,294.560 83.779 C 294.776 84.038,295.109 84.606,295.300 85.042 C 295.491 85.477,295.721 85.833,295.811 85.833 C 295.901 85.833,296.057 86.084,296.158 86.390 C 296.259 86.696,296.527 87.198,296.754 87.505 C 296.981 87.813,297.167 88.183,297.167 88.329 C 297.167 88.474,297.392 88.839,297.667 89.140 C 297.942 89.441,298.167 89.822,298.167 89.987 C 298.167 90.152,298.388 90.565,298.657 90.905 C 298.927 91.245,299.233 91.780,299.337 92.095 C 299.441 92.409,299.596 92.667,299.682 92.667 C 299.767 92.667,300.012 93.060,300.225 93.542 C 300.438 94.023,300.737 94.520,300.890 94.645 C 301.042 94.771,301.167 94.989,301.167 95.130 C 301.167 95.270,301.351 95.627,301.577 95.923 C 301.802 96.219,302.111 96.770,302.262 97.147 C 302.413 97.524,302.604 97.833,302.687 97.833 C 302.770 97.833,303.029 98.227,303.263 98.708 C 304.092 100.413,304.587 101.292,304.875 101.573 C 305.035 101.729,305.167 101.983,305.167 102.137 C 305.167 102.291,305.392 102.679,305.667 103.000 C 305.941 103.321,306.166 103.709,306.166 103.862 C 306.166 104.016,306.343 104.353,306.560 104.612 C 306.776 104.871,307.101 105.421,307.282 105.833 C 307.464 106.246,307.737 106.686,307.890 106.812 C 308.042 106.938,308.169 107.163,308.171 107.312 C 308.174 107.461,308.399 107.878,308.671 108.238 C 308.944 108.598,309.167 109.016,309.167 109.167 C 309.167 109.318,309.352 109.616,309.578 109.829 C 309.805 110.042,310.077 110.486,310.182 110.816 C 310.288 111.146,310.509 111.567,310.673 111.750 C 310.837 111.933,311.107 112.402,311.275 112.792 C 311.442 113.181,311.633 113.500,311.700 113.500 C 311.766 113.500,312.002 113.856,312.223 114.292 C 312.445 114.727,312.806 115.435,313.026 115.865 C 313.247 116.295,313.631 116.876,313.881 117.156 L 314.336 117.667 336.562 117.667 C 361.710 117.667,359.309 117.804,359.898 116.331 C 360.047 115.959,360.281 115.613,360.418 115.560 C 360.555 115.507,360.667 115.362,360.667 115.238 C 360.667 114.926,361.200 113.833,361.352 113.833 C 361.420 113.833,361.673 113.440,361.915 112.958 C 362.691 111.414,363.078 110.718,363.318 110.432 C 363.447 110.279,363.724 109.781,363.935 109.327 C 364.146 108.872,364.396 108.500,364.492 108.500 C 364.588 108.500,364.667 108.361,364.667 108.191 C 364.667 108.022,364.852 107.628,365.079 107.316 C 365.305 107.005,365.682 106.375,365.915 105.917 C 366.399 104.965,367.067 103.835,367.300 103.571 C 367.387 103.472,367.609 103.051,367.794 102.634 C 367.978 102.217,368.208 101.828,368.304 101.768 C 368.400 101.709,368.674 101.268,368.913 100.788 C 369.152 100.309,369.588 99.490,369.882 98.969 C 370.176 98.448,370.595 97.698,370.814 97.303 C 371.033 96.907,371.273 96.543,371.349 96.494 C 371.425 96.445,371.645 96.047,371.839 95.609 C 372.033 95.172,372.298 94.772,372.429 94.722 C 372.560 94.672,372.667 94.529,372.667 94.404 C 372.667 94.093,373.200 93.000,373.352 93.000 C 373.420 93.000,373.673 92.606,373.915 92.125 C 374.602 90.757,375.131 89.817,375.382 89.521 C 375.508 89.372,375.712 88.997,375.834 88.688 C 375.957 88.379,376.181 88.004,376.333 87.855 C 376.485 87.706,376.709 87.321,376.831 87.000 C 376.954 86.679,377.183 86.267,377.340 86.083 C 377.498 85.900,377.790 85.412,377.990 85.000 C 378.687 83.565,379.168 82.763,379.416 82.623 C 379.554 82.546,379.667 82.377,379.667 82.247 C 379.667 81.920,380.199 80.833,380.360 80.833 C 380.432 80.833,380.651 80.461,380.847 80.005 C 381.043 79.550,381.307 79.091,381.435 78.985 C 381.759 78.716,381.724 78.283,381.341 77.842 C 381.161 77.635,380.925 77.195,380.816 76.865 C 380.707 76.534,380.489 76.148,380.332 76.007 C 380.175 75.866,379.947 75.487,379.826 75.167 C 379.705 74.846,379.432 74.371,379.220 74.112 C 379.007 73.853,378.833 73.544,378.833 73.426 C 378.833 73.308,378.671 73.006,378.474 72.754 C 378.093 72.271,377.632 71.468,376.922 70.058 C 376.685 69.586,376.384 69.111,376.254 69.003 C 376.124 68.895,375.891 68.475,375.736 68.070 C 375.581 67.665,375.403 67.333,375.339 67.333 C 375.276 67.333,375.048 66.958,374.833 66.500 C 374.619 66.042,374.389 65.667,374.323 65.667 C 374.257 65.667,374.076 65.348,373.921 64.958 C 373.767 64.569,373.508 64.100,373.347 63.917 C 373.186 63.733,372.954 63.321,372.831 63.000 C 372.709 62.679,372.485 62.294,372.333 62.145 C 372.181 61.996,371.957 61.621,371.834 61.312 C 371.712 61.003,371.508 60.628,371.382 60.479 C 371.117 60.166,370.540 59.133,369.929 57.875 C 369.696 57.394,369.442 57.000,369.366 57.000 C 369.203 57.000,368.667 55.922,368.667 55.596 C 368.667 55.471,368.558 55.327,368.425 55.276 C 368.292 55.225,368.020 54.805,367.821 54.342 C 367.622 53.879,367.403 53.500,367.335 53.500 C 367.267 53.500,367.055 53.125,366.865 52.667 C 366.674 52.208,366.450 51.833,366.365 51.833 C 366.281 51.833,366.081 51.491,365.922 51.073 C 365.762 50.656,365.502 50.187,365.345 50.032 C 365.187 49.877,364.958 49.487,364.835 49.167 C 364.713 48.846,364.489 48.433,364.337 48.250 C 364.186 48.067,363.926 47.602,363.760 47.218 C 363.594 46.834,363.370 46.486,363.262 46.444 C 363.154 46.403,362.961 46.053,362.833 45.667 C 362.706 45.281,362.507 44.928,362.392 44.884 C 362.277 44.840,362.098 44.546,361.994 44.231 C 361.890 43.916,361.637 43.454,361.433 43.204 C 361.228 42.954,360.960 42.487,360.836 42.167 C 360.713 41.846,360.501 41.453,360.366 41.295 C 360.231 41.136,359.962 40.688,359.769 40.299 C 359.165 39.088,360.881 39.172,336.529 39.169 L 314.474 39.167 313.820 39.847 M332.323 46.830 C 333.187 47.078,333.161 46.754,333.164 57.508 C 333.166 65.132,333.216 67.649,333.367 67.800 C 333.709 68.142,339.474 68.075,339.862 67.724 C 340.151 67.463,340.167 66.924,340.167 57.417 C 340.167 47.430,340.168 47.384,340.517 47.067 C 340.952 46.674,353.826 46.562,353.956 46.950 C 353.992 47.061,354.204 47.398,354.427 47.700 C 354.649 48.003,354.992 48.606,355.188 49.042 C 355.384 49.477,355.610 49.833,355.691 49.833 C 355.772 49.833,356.029 50.227,356.263 50.708 C 356.965 52.153,357.396 52.914,357.792 53.409 C 357.998 53.667,358.167 54.005,358.167 54.160 C 358.167 54.315,358.352 54.616,358.578 54.829 C 358.805 55.042,359.077 55.486,359.182 55.816 C 359.288 56.146,359.506 56.567,359.667 56.750 C 359.827 56.933,360.097 57.381,360.265 57.744 C 360.434 58.108,360.706 58.539,360.869 58.703 C 361.033 58.866,361.167 59.131,361.167 59.292 C 361.167 59.452,361.357 59.804,361.588 60.073 C 361.820 60.342,362.054 60.755,362.110 60.990 C 362.165 61.225,362.386 61.606,362.601 61.838 C 362.816 62.070,363.079 62.520,363.185 62.838 C 363.292 63.156,363.544 63.604,363.746 63.833 C 363.948 64.063,364.216 64.509,364.341 64.826 C 364.467 65.143,364.704 65.537,364.868 65.701 C 365.032 65.866,365.167 66.131,365.167 66.292 C 365.167 66.452,365.392 66.846,365.667 67.167 C 365.941 67.487,366.166 67.875,366.166 68.029 C 366.166 68.182,366.349 68.525,366.572 68.790 C 366.796 69.055,367.104 69.586,367.257 69.969 C 367.411 70.353,367.604 70.667,367.687 70.667 C 367.770 70.667,368.029 71.060,368.263 71.542 C 368.994 73.045,369.407 73.789,369.688 74.108 C 369.837 74.278,370.121 74.754,370.320 75.167 C 370.650 75.853,371.462 77.325,371.948 78.116 C 372.103 78.369,372.095 78.524,371.910 78.844 C 371.780 79.067,371.493 79.628,371.271 80.090 C 371.050 80.552,370.752 81.027,370.609 81.145 C 370.467 81.263,370.261 81.635,370.151 81.972 C 370.042 82.308,369.775 82.762,369.559 82.981 C 369.343 83.200,369.167 83.513,369.167 83.677 C 369.167 83.842,369.044 84.099,368.894 84.249 C 368.613 84.530,367.955 85.676,367.315 87.000 C 367.116 87.412,366.776 87.962,366.560 88.221 C 366.343 88.480,366.167 88.784,366.167 88.897 C 366.167 89.010,365.974 89.360,365.738 89.676 C 365.503 89.992,365.198 90.475,365.061 90.750 C 364.924 91.025,364.559 91.700,364.249 92.250 C 363.940 92.800,363.514 93.587,363.302 94.000 C 363.090 94.412,362.825 94.825,362.714 94.917 C 362.602 95.008,362.388 95.383,362.239 95.750 C 362.089 96.117,361.843 96.555,361.692 96.725 C 361.420 97.030,361.036 97.712,360.318 99.167 C 360.115 99.579,359.850 99.992,359.730 100.083 C 359.609 100.175,359.387 100.549,359.236 100.915 C 359.085 101.281,358.783 101.793,358.564 102.053 C 358.346 102.313,358.167 102.660,358.167 102.823 C 358.167 102.987,357.942 103.404,357.667 103.750 C 357.392 104.096,357.167 104.468,357.167 104.577 C 357.167 104.685,356.944 105.069,356.671 105.429 C 356.399 105.789,356.174 106.171,356.171 106.279 C 356.169 106.386,355.991 106.686,355.777 106.946 C 355.562 107.205,355.302 107.666,355.198 107.971 C 355.094 108.276,354.838 108.740,354.629 109.002 C 354.421 109.264,354.115 109.671,353.951 109.906 L 353.651 110.333 347.350 110.333 L 341.049 110.333 340.608 109.925 L 340.167 109.516 340.167 99.430 C 340.167 89.630,340.158 89.340,339.844 89.173 C 339.501 88.989,333.886 88.926,333.430 89.101 C 333.194 89.192,333.167 90.251,333.167 99.359 L 333.167 109.515 332.758 109.924 L 332.348 110.333 326.166 110.333 C 319.330 110.333,319.233 110.320,318.829 109.300 C 318.710 108.997,318.508 108.628,318.382 108.479 C 318.148 108.203,317.696 107.410,316.923 105.917 C 316.685 105.458,316.305 104.828,316.079 104.517 C 315.852 104.206,315.667 103.812,315.667 103.642 C 315.667 103.472,315.593 103.333,315.502 103.333 C 315.352 103.333,314.872 102.519,313.872 100.570 C 313.664 100.165,313.430 99.833,313.353 99.833 C 313.275 99.833,313.080 99.477,312.918 99.042 C 312.756 98.606,312.496 98.138,312.339 98.000 C 312.182 97.862,311.952 97.487,311.829 97.167 C 311.706 96.846,311.432 96.371,311.220 96.112 C 311.007 95.853,310.833 95.540,310.833 95.417 C 310.833 95.293,310.651 94.975,310.427 94.710 C 310.204 94.445,309.975 94.040,309.917 93.811 C 309.859 93.581,309.638 93.190,309.424 92.942 C 309.211 92.694,308.941 92.249,308.825 91.954 C 308.708 91.658,308.485 91.267,308.329 91.083 C 308.173 90.900,307.908 90.431,307.740 90.042 C 307.573 89.652,307.385 89.333,307.322 89.333 C 307.259 89.333,307.046 88.958,306.849 88.500 C 306.652 88.042,306.424 87.667,306.342 87.667 C 306.260 87.667,306.105 87.402,305.999 87.079 C 305.892 86.756,305.637 86.287,305.433 86.037 C 305.228 85.788,304.961 85.321,304.838 85.000 C 304.715 84.679,304.524 84.341,304.413 84.248 C 304.302 84.155,304.041 83.705,303.834 83.248 C 303.627 82.791,303.391 82.374,303.310 82.322 C 303.108 82.193,302.066 80.262,301.607 79.167 C 301.549 79.029,301.408 78.783,301.293 78.620 C 301.136 78.399,301.132 78.293,301.275 78.204 C 301.381 78.137,301.667 77.671,301.911 77.167 C 302.524 75.899,303.110 74.843,303.378 74.521 C 303.502 74.372,303.740 73.936,303.906 73.551 C 304.072 73.167,304.304 72.816,304.422 72.771 C 304.539 72.726,304.686 72.457,304.748 72.174 C 304.811 71.891,305.029 71.454,305.234 71.204 C 305.438 70.954,305.760 70.450,305.949 70.083 C 306.754 68.524,307.181 67.759,307.386 67.513 C 307.506 67.368,307.742 66.931,307.911 66.542 C 308.079 66.152,308.275 65.833,308.346 65.833 C 308.417 65.833,308.670 65.440,308.908 64.958 C 309.146 64.477,309.599 63.633,309.914 63.083 C 310.229 62.533,310.651 61.784,310.851 61.417 C 311.052 61.051,311.309 60.676,311.423 60.584 C 311.537 60.492,311.717 60.141,311.823 59.805 C 311.930 59.469,312.124 59.105,312.254 58.997 C 312.384 58.889,312.684 58.414,312.920 57.942 C 313.376 57.031,314.009 55.936,314.624 54.991 C 314.830 54.675,314.999 54.347,314.999 54.261 C 315.000 54.175,315.138 53.950,315.306 53.761 C 315.475 53.572,315.712 53.154,315.833 52.833 C 315.955 52.512,316.186 52.100,316.347 51.917 C 316.508 51.733,316.767 51.265,316.921 50.875 C 317.076 50.485,317.268 50.167,317.347 50.167 C 317.426 50.167,317.652 49.792,317.849 49.333 C 318.046 48.875,318.266 48.500,318.337 48.500 C 318.409 48.500,318.606 48.160,318.775 47.745 C 319.010 47.171,319.203 46.956,319.583 46.844 C 320.280 46.639,331.614 46.627,332.323 46.830 " stroke="none" fill="#df222a" fill-rule="evenodd"></path><path id="path1" d="M101.083 45.842 C 98.558 45.996,96.997 46.240,96.333 46.583 C 96.102 46.703,95.541 46.857,95.086 46.925 C 94.632 46.993,93.808 47.263,93.255 47.524 C 92.702 47.786,92.087 48.000,91.888 48.000 C 91.689 48.000,91.302 48.188,91.029 48.418 C 90.756 48.647,90.306 48.880,90.028 48.936 C 89.750 48.992,89.387 49.164,89.220 49.319 C 89.053 49.474,88.523 49.815,88.042 50.077 C 87.560 50.339,87.167 50.604,87.167 50.666 C 87.167 50.729,86.963 50.873,86.714 50.986 C 86.208 51.216,86.252 51.177,83.833 53.570 C 81.682 55.699,81.441 55.976,80.561 57.333 C 80.175 57.929,79.714 58.604,79.537 58.833 C 79.360 59.063,79.056 59.587,78.862 60.000 C 78.667 60.413,78.438 60.862,78.352 61.000 C 77.965 61.619,77.000 63.803,77.000 64.060 C 77.000 64.216,76.822 64.698,76.604 65.131 C 76.385 65.563,76.155 66.254,76.091 66.667 C 76.027 67.079,75.794 68.024,75.573 68.766 C 75.352 69.508,75.095 70.896,75.001 71.850 C 74.907 72.803,74.761 74.221,74.676 75.000 C 74.476 76.828,74.471 79.826,74.664 81.833 C 74.748 82.704,74.894 84.236,74.988 85.238 C 75.084 86.258,75.338 87.614,75.566 88.321 C 75.790 89.015,76.024 89.956,76.086 90.411 C 76.148 90.867,76.368 91.579,76.575 91.995 C 76.783 92.410,77.003 92.975,77.065 93.250 C 77.175 93.737,77.960 95.495,78.441 96.333 C 78.573 96.563,78.809 97.013,78.965 97.333 C 79.122 97.654,79.298 97.954,79.356 98.000 C 79.415 98.046,79.677 98.429,79.940 98.852 C 80.202 99.275,80.617 99.921,80.863 100.288 C 81.454 101.171,84.770 104.596,85.749 105.333 C 86.174 105.654,86.771 106.123,87.075 106.375 C 87.379 106.627,87.696 106.833,87.781 106.833 C 87.865 106.833,88.230 107.049,88.592 107.312 C 88.954 107.576,89.438 107.848,89.667 107.918 C 89.896 107.987,90.295 108.193,90.554 108.375 C 90.812 108.557,91.370 108.811,91.794 108.938 C 92.217 109.066,92.735 109.282,92.945 109.420 C 93.155 109.557,93.819 109.784,94.421 109.924 C 95.023 110.063,95.868 110.315,96.299 110.483 C 98.892 111.493,109.170 111.451,111.924 110.419 C 112.478 110.211,113.265 109.985,113.674 109.917 C 114.082 109.849,114.754 109.625,115.167 109.420 C 115.579 109.215,116.129 108.996,116.389 108.934 C 116.649 108.871,117.136 108.646,117.472 108.434 C 117.808 108.222,118.271 107.991,118.500 107.920 C 118.729 107.849,119.213 107.576,119.575 107.312 C 119.936 107.049,120.301 106.833,120.386 106.833 C 120.470 106.833,120.788 106.627,121.092 106.375 C 121.397 106.123,122.038 105.617,122.518 105.250 C 123.622 104.407,125.549 102.478,126.417 101.347 C 126.783 100.870,127.290 100.230,127.542 99.926 C 127.794 99.622,128.000 99.300,128.000 99.212 C 128.000 99.124,128.144 98.921,128.321 98.762 C 128.497 98.602,128.830 98.072,129.061 97.585 C 129.292 97.097,129.555 96.653,129.645 96.597 C 129.735 96.541,129.901 96.215,130.014 95.873 C 130.127 95.530,130.387 94.987,130.592 94.667 C 130.797 94.346,131.010 93.821,131.066 93.500 C 131.122 93.179,131.355 92.548,131.584 92.097 C 131.813 91.646,132.000 91.101,132.000 90.885 C 132.000 90.670,132.191 89.951,132.424 89.289 C 132.657 88.626,132.920 87.483,133.009 86.750 C 133.097 86.017,133.300 84.704,133.460 83.833 C 133.868 81.608,133.868 74.851,133.460 72.917 C 133.305 72.183,133.128 71.021,133.065 70.333 C 133.003 69.646,132.738 68.415,132.476 67.597 C 132.214 66.780,132.000 65.970,132.000 65.799 C 132.000 65.627,131.775 65.005,131.500 64.417 C 131.225 63.828,131.000 63.205,131.000 63.030 C 131.000 62.856,130.813 62.438,130.585 62.102 C 130.357 61.766,130.123 61.287,130.064 61.037 C 130.005 60.788,129.779 60.345,129.561 60.053 C 129.344 59.761,129.167 59.462,129.167 59.388 C 129.167 59.313,128.917 58.877,128.612 58.418 C 128.307 57.959,127.950 57.423,127.820 57.227 C 126.222 54.817,124.390 52.971,121.232 50.583 C 120.394 49.950,116.797 48.000,116.466 48.000 C 116.385 48.000,115.854 47.785,115.285 47.523 C 114.716 47.260,113.912 46.995,113.500 46.933 C 113.087 46.871,112.225 46.643,111.583 46.427 C 110.434 46.039,109.718 45.968,104.917 45.763 C 104.092 45.728,102.367 45.763,101.083 45.842 M17.262 47.095 C 16.863 47.494,16.861 109.227,17.259 109.796 C 17.647 110.349,28.284 110.383,28.833 109.833 C 29.161 109.506,29.167 109.278,29.167 96.354 C 29.167 84.330,29.190 83.188,29.442 82.979 C 29.914 82.587,55.505 82.554,55.791 82.945 C 55.954 83.168,56.000 86.090,56.000 96.328 C 56.000 107.913,56.030 109.469,56.259 109.796 C 56.647 110.349,67.284 110.383,67.833 109.833 C 68.359 109.307,68.359 47.693,67.833 47.167 C 67.374 46.707,56.716 46.641,56.262 47.095 C 56.029 47.328,56.000 48.674,56.000 59.395 C 56.000 68.536,55.952 71.481,55.800 71.633 C 55.535 71.898,29.982 71.925,29.489 71.661 C 29.175 71.493,29.167 71.182,29.167 59.494 C 29.167 47.722,29.160 47.494,28.833 47.167 C 28.374 46.707,17.716 46.641,17.262 47.095 M140.282 47.075 C 139.866 47.492,139.843 109.202,140.259 109.796 C 140.647 110.349,151.284 110.383,151.833 109.833 C 152.160 109.507,152.167 109.278,152.167 98.346 L 152.167 87.193 152.708 87.024 C 153.006 86.932,155.350 86.825,157.917 86.786 C 160.863 86.742,162.755 86.646,163.049 86.526 C 163.305 86.421,164.424 86.179,165.535 85.987 C 166.646 85.796,167.711 85.539,167.902 85.417 C 168.094 85.295,168.587 85.104,169.000 84.992 C 169.754 84.788,171.847 83.805,173.080 83.076 C 174.392 82.300,176.564 80.427,177.417 79.337 C 177.783 78.868,178.279 78.244,178.519 77.951 C 178.759 77.657,179.013 77.229,179.085 77.000 C 179.156 76.771,179.391 76.351,179.607 76.068 C 179.823 75.784,180.000 75.401,180.000 75.217 C 180.000 75.033,180.196 74.516,180.435 74.066 C 180.690 73.588,180.934 72.767,181.024 72.083 C 181.109 71.442,181.301 70.429,181.451 69.833 C 181.826 68.347,181.828 64.148,181.455 62.750 C 181.308 62.200,181.114 61.208,181.025 60.546 C 180.930 59.847,180.725 59.147,180.535 58.879 C 180.355 58.625,180.156 58.175,180.092 57.881 C 180.028 57.586,179.801 57.087,179.588 56.773 C 179.375 56.458,179.144 56.025,179.076 55.809 C 178.658 54.489,175.002 51.017,173.057 50.093 C 172.584 49.868,172.152 49.611,172.097 49.522 C 172.041 49.432,171.603 49.235,171.123 49.085 C 170.643 48.934,169.975 48.664,169.639 48.486 C 169.303 48.307,168.478 48.056,167.806 47.927 C 167.133 47.798,165.983 47.529,165.250 47.329 C 163.372 46.818,140.769 46.588,140.282 47.075 M189.333 46.952 C 188.433 47.283,188.500 44.730,188.500 78.528 L 188.500 109.505 189.042 109.835 C 190.117 110.491,200.074 110.285,200.539 109.598 C 200.606 109.498,200.663 104.457,200.664 98.394 L 200.667 87.372 201.051 87.120 C 201.365 86.914,202.323 86.855,206.259 86.797 C 209.412 86.751,211.245 86.658,211.549 86.531 C 211.805 86.424,212.924 86.179,214.035 85.987 C 215.146 85.796,216.211 85.536,216.402 85.411 C 216.594 85.286,217.193 85.068,217.734 84.928 C 218.276 84.787,218.838 84.569,218.984 84.445 C 219.130 84.320,219.578 84.091,219.978 83.936 C 220.378 83.781,220.941 83.488,221.228 83.285 C 221.515 83.082,221.870 82.841,222.017 82.750 C 223.756 81.668,227.000 78.494,227.000 77.874 C 227.000 77.793,227.223 77.431,227.495 77.071 C 227.768 76.711,227.993 76.334,227.995 76.233 C 227.998 76.132,228.188 75.695,228.419 75.262 C 228.649 74.829,228.914 74.124,229.006 73.695 C 229.099 73.267,229.333 72.542,229.527 72.083 C 230.322 70.200,230.262 62.685,229.433 60.378 C 229.195 59.715,229.000 59.001,229.000 58.792 C 229.000 58.582,228.824 58.150,228.608 57.830 C 228.393 57.511,228.125 56.970,228.013 56.627 C 227.901 56.285,227.739 55.961,227.653 55.908 C 227.567 55.855,227.232 55.399,226.910 54.895 C 225.872 53.273,223.677 51.285,221.691 50.169 C 221.448 50.033,220.912 49.727,220.500 49.489 C 220.088 49.251,219.525 49.001,219.250 48.935 C 218.975 48.868,218.445 48.668,218.072 48.490 C 217.700 48.312,216.950 48.087,216.406 47.989 C 215.862 47.891,214.929 47.660,214.333 47.475 C 212.630 46.948,190.598 46.486,189.333 46.952 M237.333 46.952 C 236.433 47.283,236.500 44.730,236.500 78.528 L 236.500 109.505 237.042 109.835 C 237.897 110.357,273.312 110.355,273.833 109.833 C 274.381 109.286,274.348 100.479,273.796 100.093 C 273.469 99.864,272.000 99.833,261.246 99.833 C 251.995 99.833,249.019 99.785,248.867 99.633 C 248.717 99.483,248.667 97.402,248.667 91.292 L 248.667 83.152 249.076 82.742 L 249.485 82.333 258.549 82.333 L 267.613 82.333 267.807 81.909 C 268.083 81.301,268.077 72.477,267.800 72.200 C 267.649 72.049,265.333 71.999,258.425 71.995 C 251.060 71.990,249.192 71.946,248.958 71.768 C 248.689 71.563,248.667 71.017,248.667 64.533 L 248.667 57.519 249.037 57.259 C 249.364 57.031,250.780 57.000,261.025 57.000 C 271.364 57.000,272.672 56.971,272.905 56.738 C 273.334 56.309,273.294 47.501,272.862 47.109 C 272.559 46.835,238.066 46.682,237.333 46.952 M280.625 47.189 C 280.373 47.284,280.167 47.429,280.167 47.512 C 280.167 47.594,279.919 47.765,279.617 47.892 C 278.858 48.209,277.244 50.089,277.021 50.917 C 276.922 51.283,276.690 51.880,276.504 52.244 C 275.972 53.286,276.016 56.047,276.583 57.167 C 276.813 57.619,277.000 58.136,277.000 58.315 C 277.000 58.494,277.262 58.985,277.583 59.405 C 277.904 59.826,278.167 60.242,278.167 60.330 C 278.167 60.419,278.385 60.604,278.651 60.742 C 278.917 60.880,279.240 61.097,279.367 61.225 C 279.785 61.642,280.639 62.000,281.216 62.000 C 281.543 62.000,281.945 62.141,282.167 62.333 C 282.803 62.885,285.833 62.801,285.833 62.232 C 285.833 62.051,285.500 62.000,284.302 62.000 C 282.987 62.000,282.720 61.952,282.406 61.657 C 282.206 61.468,281.660 61.214,281.194 61.091 C 280.374 60.874,279.743 60.360,278.571 58.953 C 277.732 57.945,276.776 53.594,277.321 53.258 C 277.468 53.167,277.869 52.039,278.063 51.167 C 278.114 50.938,278.328 50.563,278.538 50.333 C 278.748 50.104,279.052 49.710,279.214 49.458 C 279.375 49.206,279.596 49.000,279.704 49.000 C 279.812 49.000,280.129 48.782,280.409 48.516 C 281.530 47.446,286.293 47.421,287.643 48.478 C 288.824 49.403,289.839 50.586,290.021 51.250 C 290.122 51.617,290.357 52.316,290.543 52.804 C 290.978 53.943,290.970 55.560,290.523 56.570 C 290.346 56.971,290.146 57.550,290.079 57.858 C 289.851 58.907,287.955 60.876,286.968 61.088 C 286.158 61.262,285.833 61.472,285.941 61.753 C 286.077 62.108,287.478 62.080,288.005 61.712 C 289.671 60.547,290.917 59.086,291.072 58.114 C 291.133 57.735,291.298 57.298,291.439 57.142 C 292.050 56.467,292.047 53.022,291.435 52.088 C 291.301 51.883,291.137 51.423,291.071 51.066 C 290.902 50.144,289.286 48.157,288.509 47.917 C 288.285 47.847,287.973 47.631,287.816 47.437 C 287.489 47.033,281.582 46.829,280.625 47.189 M281.200 50.200 C 280.980 50.420,280.935 57.560,281.148 58.333 C 281.241 58.670,281.385 58.760,281.893 58.802 C 282.809 58.879,283.000 58.639,283.000 57.415 C 283.000 56.659,283.083 56.268,283.299 56.001 L 283.598 55.632 284.340 56.559 C 284.749 57.068,285.219 57.677,285.385 57.912 C 286.014 58.802,287.667 59.174,287.667 58.425 C 287.667 58.147,286.607 56.250,286.255 55.898 C 285.922 55.565,285.911 55.613,286.573 54.525 C 286.899 53.990,287.158 53.331,287.173 53.000 C 287.236 51.650,287.177 51.466,286.439 50.728 L 285.711 50.000 283.555 50.000 C 282.101 50.000,281.335 50.065,281.200 50.200 M284.833 52.000 C 285.550 52.716,285.023 54.000,284.012 54.000 C 283.376 54.000,283.000 53.607,283.000 52.942 C 283.000 51.796,284.077 51.243,284.833 52.000 M107.006 55.989 C 107.917 56.085,108.769 56.294,109.371 56.569 C 109.888 56.806,110.427 57.000,110.567 57.000 C 110.707 57.000,111.177 57.225,111.610 57.500 C 112.044 57.775,112.458 58.000,112.531 58.000 C 113.079 58.000,117.167 61.884,117.167 62.405 C 117.167 62.465,117.354 62.717,117.583 62.964 C 117.813 63.211,118.000 63.493,118.000 63.591 C 118.000 63.688,118.217 64.110,118.482 64.528 C 118.747 64.945,119.018 65.541,119.086 65.852 C 119.153 66.163,119.346 66.612,119.514 66.850 C 119.683 67.089,119.903 67.651,120.003 68.100 C 120.103 68.549,120.365 69.517,120.585 70.250 C 121.675 73.879,121.665 83.760,120.569 86.833 C 120.357 87.429,120.130 88.254,120.067 88.667 C 120.003 89.079,119.737 89.821,119.475 90.315 C 119.214 90.809,119.000 91.334,118.999 91.482 C 118.999 91.629,118.774 92.087,118.500 92.500 C 118.226 92.912,118.001 93.336,118.001 93.441 C 118.000 93.546,117.814 93.808,117.586 94.024 C 117.359 94.240,117.171 94.498,117.170 94.598 C 117.159 95.255,113.117 99.000,112.419 99.000 C 112.308 99.000,112.082 99.151,111.915 99.335 C 111.748 99.519,111.268 99.775,110.848 99.903 C 110.427 100.031,109.744 100.289,109.329 100.476 C 107.486 101.307,100.877 101.290,98.975 100.450 C 98.485 100.233,97.878 100.005,97.626 99.942 C 97.375 99.879,96.816 99.604,96.385 99.330 C 95.954 99.057,95.541 98.833,95.467 98.833 C 95.394 98.833,95.194 98.702,95.024 98.542 C 94.854 98.381,94.385 97.993,93.982 97.678 C 93.267 97.120,91.302 94.985,90.935 94.367 C 90.833 94.196,90.582 93.800,90.376 93.487 C 90.170 93.173,90.001 92.811,90.001 92.682 C 90.000 92.554,89.819 92.211,89.598 91.921 C 89.377 91.631,89.106 91.062,88.997 90.656 C 88.888 90.250,88.659 89.645,88.489 89.311 C 88.318 88.977,88.102 88.222,88.008 87.633 C 87.914 87.045,87.671 86.117,87.467 85.573 C 87.111 84.620,87.097 84.363,87.090 78.583 L 87.083 72.583 87.526 71.167 C 87.769 70.387,88.015 69.424,88.072 69.026 C 88.129 68.628,88.316 68.028,88.487 67.692 C 88.658 67.356,88.889 66.747,88.999 66.338 C 89.109 65.930,89.337 65.419,89.507 65.204 C 89.676 64.989,89.904 64.536,90.015 64.198 C 90.125 63.860,90.394 63.358,90.613 63.083 C 92.139 61.168,93.244 59.910,93.803 59.451 C 95.202 58.300,95.431 58.134,95.833 57.977 C 96.063 57.888,96.513 57.638,96.833 57.423 C 97.154 57.208,97.679 56.978,98.000 56.912 C 98.321 56.846,98.883 56.639,99.250 56.451 C 100.330 55.898,104.040 55.677,107.006 55.989 M160.721 56.844 C 162.211 56.974,162.971 57.124,163.583 57.407 C 164.042 57.620,164.664 57.875,164.967 57.974 C 165.914 58.286,168.167 60.227,168.167 60.732 C 168.167 60.879,168.243 61.000,168.336 61.000 C 168.534 61.000,168.821 61.630,169.361 63.250 C 170.744 67.398,168.777 73.688,165.667 75.063 C 165.438 75.164,165.005 75.410,164.706 75.609 C 164.407 75.808,163.844 76.024,163.456 76.088 C 163.068 76.152,162.670 76.268,162.573 76.347 C 161.791 76.975,152.830 77.349,152.352 76.773 C 152.216 76.609,152.176 73.865,152.207 66.820 L 152.250 57.093 152.667 56.882 C 153.193 56.616,157.857 56.594,160.721 56.844 M209.074 56.850 C 211.136 57.012,211.527 57.092,212.333 57.517 C 212.838 57.782,213.340 57.999,213.450 58.000 C 214.214 58.001,216.602 60.301,217.084 61.500 C 217.177 61.729,217.437 62.254,217.663 62.667 C 218.318 63.859,218.301 69.301,217.639 70.667 C 217.395 71.171,217.087 71.846,216.956 72.167 C 216.703 72.782,214.613 74.998,214.279 75.003 C 214.171 75.005,213.763 75.223,213.371 75.489 C 212.979 75.755,212.341 76.025,211.954 76.089 C 211.567 76.153,211.063 76.300,210.833 76.415 C 209.579 77.045,201.602 77.295,200.971 76.724 C 200.683 76.463,200.667 75.940,200.667 66.943 L 200.667 57.438 201.029 57.052 C 201.459 56.595,204.762 56.512,209.074 56.850 " stroke="none" fill="#ffffff" fill-rule="evenodd"></path><path id="path2" d="M314.236 38.993 C 313.839 39.156,313.002 40.096,312.995 40.388 C 312.993 40.495,312.768 40.878,312.495 41.238 C 312.223 41.598,312.000 41.977,312.000 42.081 C 312.000 42.184,311.808 42.527,311.574 42.843 C 311.340 43.158,310.999 43.717,310.816 44.083 C 310.426 44.865,310.063 45.510,309.525 46.378 C 308.909 47.372,308.362 48.360,308.015 49.107 C 307.839 49.486,307.609 49.849,307.505 49.914 C 307.401 49.978,307.128 50.418,306.899 50.890 C 306.396 51.930,305.994 52.653,305.568 53.280 C 305.393 53.538,305.093 54.050,304.902 54.417 C 304.172 55.812,303.634 56.739,303.323 57.135 C 303.145 57.360,303.000 57.633,303.000 57.740 C 303.000 57.847,302.808 58.194,302.574 58.509 C 302.340 58.825,302.001 59.383,301.820 59.750 C 301.341 60.721,300.671 61.879,300.423 62.167 C 300.305 62.304,300.045 62.754,299.846 63.167 C 299.396 64.097,298.983 64.835,298.568 65.447 C 298.393 65.705,298.093 66.217,297.902 66.583 C 297.173 67.977,296.629 68.926,296.418 69.167 C 296.298 69.304,296.090 69.682,295.956 70.007 C 295.823 70.331,295.601 70.709,295.463 70.846 C 295.326 70.984,295.048 71.431,294.846 71.840 C 294.121 73.307,293.746 73.971,293.471 74.275 C 293.318 74.445,293.142 74.787,293.080 75.035 C 293.018 75.283,292.794 75.673,292.583 75.902 C 292.371 76.130,292.112 76.578,292.006 76.898 C 291.901 77.218,291.664 77.671,291.479 77.905 L 291.145 78.331 291.686 79.457 C 291.984 80.077,292.345 80.722,292.489 80.892 C 292.751 81.201,293.160 81.936,293.847 83.333 C 294.050 83.746,294.393 84.315,294.608 84.599 C 294.824 84.883,295.000 85.196,295.000 85.295 C 295.000 85.394,295.176 85.686,295.390 85.946 C 295.605 86.205,295.865 86.666,295.969 86.971 C 296.073 87.276,296.347 87.750,296.579 88.025 C 296.811 88.300,297.000 88.622,297.000 88.740 C 297.000 88.858,297.148 89.143,297.329 89.373 C 297.730 89.883,298.354 90.966,298.894 92.090 C 299.116 92.552,299.415 93.027,299.557 93.145 C 299.700 93.263,299.902 93.620,300.007 93.938 C 300.112 94.256,300.371 94.703,300.583 94.932 C 300.794 95.160,301.018 95.550,301.080 95.798 C 301.142 96.047,301.318 96.389,301.471 96.558 C 301.740 96.856,301.936 97.198,302.833 98.941 C 303.063 99.386,303.341 99.825,303.453 99.917 C 303.564 100.008,303.778 100.383,303.928 100.750 C 304.077 101.117,304.324 101.555,304.475 101.725 C 304.746 102.029,305.126 102.704,305.846 104.160 C 306.048 104.569,306.326 105.016,306.463 105.154 C 306.601 105.291,306.822 105.664,306.955 105.983 C 307.088 106.301,307.369 106.792,307.579 107.073 C 307.789 107.354,308.018 107.771,308.087 108.000 C 308.156 108.229,308.390 108.629,308.606 108.888 C 308.823 109.147,309.000 109.456,309.000 109.574 C 309.000 109.692,309.148 109.977,309.329 110.207 C 309.722 110.707,310.356 111.802,310.849 112.833 C 311.046 113.246,311.304 113.696,311.422 113.833 C 311.540 113.971,311.842 114.458,312.092 114.917 C 312.343 115.375,312.672 115.975,312.822 116.250 C 313.356 117.224,313.676 117.618,314.094 117.808 C 314.406 117.950,320.265 118.000,336.597 118.000 C 361.171 118.000,359.566 118.078,360.050 116.867 C 360.198 116.497,360.404 116.143,360.507 116.079 C 360.610 116.015,360.843 115.615,361.025 115.190 C 361.207 114.765,361.492 114.267,361.659 114.083 C 361.825 113.900,362.018 113.563,362.087 113.333 C 362.156 113.104,362.390 112.705,362.606 112.446 C 362.823 112.186,363.000 111.882,363.000 111.770 C 363.000 111.658,363.216 111.270,363.479 110.908 C 363.742 110.546,364.015 110.063,364.085 109.833 C 364.155 109.604,364.384 109.211,364.595 108.959 C 364.805 108.708,365.029 108.333,365.092 108.126 C 365.155 107.919,365.303 107.638,365.421 107.500 C 365.540 107.362,365.842 106.875,366.093 106.417 C 366.830 105.074,367.390 104.109,367.791 103.492 C 367.997 103.176,368.166 102.797,368.166 102.651 C 368.166 102.505,368.319 102.247,368.506 102.078 C 368.693 101.909,368.992 101.466,369.170 101.094 C 369.349 100.721,369.761 99.967,370.087 99.417 C 370.412 98.867,370.825 98.108,371.004 97.730 C 371.183 97.353,371.435 96.957,371.563 96.850 C 371.692 96.743,371.895 96.414,372.014 96.119 C 372.132 95.825,372.403 95.351,372.615 95.068 C 372.827 94.784,373.000 94.476,373.000 94.384 C 373.000 94.292,373.216 93.919,373.479 93.555 C 373.743 93.191,374.015 92.717,374.083 92.500 C 374.152 92.283,374.424 91.809,374.687 91.445 C 374.951 91.081,375.167 90.708,375.167 90.616 C 375.167 90.524,375.343 90.216,375.559 89.932 C 375.775 89.649,376.006 89.248,376.071 89.041 C 376.136 88.834,376.362 88.459,376.572 88.207 C 376.782 87.956,377.013 87.563,377.085 87.333 C 377.156 87.104,377.383 86.692,377.588 86.417 C 377.793 86.142,378.013 85.748,378.076 85.541 C 378.138 85.334,378.362 84.959,378.572 84.707 C 378.782 84.456,379.011 84.063,379.080 83.833 C 379.149 83.604,379.343 83.266,379.511 83.081 C 379.680 82.896,379.941 82.446,380.091 82.081 C 380.242 81.716,380.499 81.267,380.663 81.083 C 380.827 80.900,381.019 80.563,381.088 80.333 C 381.158 80.104,381.391 79.685,381.607 79.401 C 382.110 78.741,382.104 78.230,381.583 77.464 C 381.354 77.127,381.167 76.783,381.167 76.701 C 381.167 76.618,380.951 76.252,380.687 75.889 C 380.424 75.525,380.153 75.045,380.085 74.822 C 380.018 74.599,379.792 74.229,379.583 74.000 C 379.375 73.771,379.148 73.396,379.080 73.167 C 379.012 72.938,378.806 72.537,378.623 72.277 C 378.440 72.017,378.124 71.492,377.922 71.111 C 377.097 69.559,376.625 68.737,376.421 68.500 C 376.303 68.362,376.155 68.081,376.092 67.874 C 376.029 67.667,375.805 67.292,375.595 67.041 C 375.384 66.789,375.155 66.396,375.085 66.167 C 375.015 65.938,374.742 65.454,374.479 65.092 C 374.216 64.730,374.000 64.362,374.000 64.275 C 374.000 64.187,373.823 63.883,373.607 63.599 C 373.391 63.315,373.158 62.896,373.089 62.667 C 373.019 62.438,372.793 62.063,372.585 61.833 C 372.377 61.604,372.119 61.141,372.012 60.805 C 371.904 60.469,371.703 60.100,371.565 59.985 C 371.427 59.870,371.202 59.509,371.066 59.182 C 370.929 58.855,370.680 58.437,370.511 58.252 C 370.343 58.068,370.150 57.729,370.083 57.500 C 370.016 57.271,369.824 56.932,369.655 56.748 C 369.487 56.563,369.226 56.113,369.075 55.748 C 368.925 55.382,368.667 54.933,368.503 54.750 C 368.339 54.567,368.149 54.234,368.082 54.012 C 368.014 53.789,367.743 53.309,367.479 52.945 C 367.216 52.581,367.000 52.208,367.000 52.116 C 367.000 52.024,366.823 51.716,366.607 51.432 C 366.391 51.149,366.156 50.729,366.085 50.500 C 366.013 50.271,365.782 49.877,365.572 49.626 C 365.362 49.374,365.138 48.999,365.076 48.793 C 365.013 48.586,364.793 48.192,364.588 47.917 C 364.383 47.642,364.161 47.248,364.096 47.041 C 364.030 46.834,363.805 46.459,363.595 46.207 C 363.384 45.956,363.156 45.563,363.087 45.333 C 363.018 45.104,362.783 44.678,362.564 44.386 C 362.345 44.094,362.167 43.787,362.167 43.703 C 362.167 43.619,361.951 43.252,361.687 42.889 C 361.424 42.525,361.153 42.045,361.085 41.822 C 361.017 41.599,360.827 41.267,360.663 41.083 C 360.499 40.900,360.256 40.487,360.122 40.167 C 359.548 38.788,361.959 38.921,336.858 38.884 C 324.607 38.866,314.427 38.915,314.236 38.993 M359.000 39.382 C 359.229 39.498,359.575 39.911,359.769 40.299 C 359.962 40.688,360.231 41.136,360.366 41.295 C 360.501 41.453,360.713 41.846,360.836 42.167 C 360.960 42.487,361.228 42.954,361.433 43.204 C 361.637 43.454,361.890 43.916,361.994 44.231 C 362.098 44.546,362.277 44.840,362.392 44.884 C 362.507 44.928,362.706 45.281,362.833 45.667 C 362.961 46.053,363.154 46.403,363.262 46.444 C 363.370 46.486,363.594 46.834,363.760 47.218 C 363.926 47.602,364.186 48.067,364.337 48.250 C 364.489 48.433,364.713 48.846,364.835 49.167 C 364.958 49.487,365.187 49.877,365.345 50.032 C 365.502 50.187,365.762 50.656,365.922 51.073 C 366.081 51.491,366.281 51.833,366.365 51.833 C 366.450 51.833,366.674 52.208,366.865 52.667 C 367.055 53.125,367.267 53.500,367.335 53.500 C 367.403 53.500,367.622 53.879,367.821 54.342 C 368.020 54.805,368.292 55.225,368.425 55.276 C 368.558 55.327,368.667 55.471,368.667 55.596 C 368.667 55.922,369.203 57.000,369.366 57.000 C 369.442 57.000,369.696 57.394,369.929 57.875 C 370.540 59.133,371.117 60.166,371.382 60.479 C 371.508 60.628,371.712 61.003,371.834 61.312 C 371.957 61.621,372.181 61.996,372.333 62.145 C 372.485 62.294,372.709 62.679,372.831 63.000 C 372.954 63.321,373.186 63.733,373.347 63.917 C 373.508 64.100,373.767 64.569,373.921 64.958 C 374.076 65.348,374.257 65.667,374.323 65.667 C 374.389 65.667,374.619 66.042,374.833 66.500 C 375.048 66.958,375.276 67.333,375.339 67.333 C 375.403 67.333,375.581 67.665,375.736 68.070 C 375.891 68.475,376.124 68.895,376.254 69.003 C 376.384 69.111,376.685 69.586,376.922 70.058 C 377.632 71.468,378.093 72.271,378.474 72.754 C 378.671 73.006,378.833 73.308,378.833 73.426 C 378.833 73.544,379.007 73.853,379.220 74.112 C 379.432 74.371,379.705 74.846,379.826 75.167 C 379.947 75.487,380.175 75.866,380.332 76.007 C 380.489 76.148,380.707 76.534,380.816 76.865 C 380.925 77.195,381.161 77.635,381.341 77.842 C 381.724 78.283,381.759 78.716,381.435 78.985 C 381.307 79.091,381.043 79.550,380.847 80.005 C 380.651 80.461,380.432 80.833,380.360 80.833 C 380.199 80.833,379.667 81.920,379.667 82.247 C 379.667 82.377,379.554 82.546,379.416 82.623 C 379.168 82.763,378.687 83.565,377.990 85.000 C 377.790 85.412,377.498 85.900,377.340 86.083 C 377.183 86.267,376.954 86.679,376.831 87.000 C 376.709 87.321,376.485 87.706,376.333 87.855 C 376.181 88.004,375.957 88.379,375.834 88.688 C 375.712 88.997,375.508 89.372,375.382 89.521 C 375.131 89.817,374.602 90.757,373.915 92.125 C 373.673 92.606,373.420 93.000,373.352 93.000 C 373.200 93.000,372.667 94.093,372.667 94.404 C 372.667 94.529,372.560 94.672,372.429 94.722 C 372.298 94.772,372.033 95.172,371.839 95.609 C 371.645 96.047,371.425 96.445,371.349 96.494 C 371.273 96.543,371.033 96.907,370.814 97.303 C 370.595 97.698,370.176 98.448,369.882 98.969 C 369.588 99.490,369.152 100.309,368.913 100.788 C 368.674 101.268,368.400 101.709,368.304 101.768 C 368.208 101.828,367.978 102.217,367.794 102.634 C 367.609 103.051,367.387 103.472,367.300 103.571 C 367.067 103.835,366.399 104.965,365.915 105.917 C 365.682 106.375,365.305 107.005,365.079 107.316 C 364.852 107.628,364.667 108.022,364.667 108.191 C 364.667 108.361,364.588 108.500,364.492 108.500 C 364.396 108.500,364.146 108.872,363.935 109.327 C 363.724 109.781,363.447 110.279,363.318 110.432 C 363.078 110.718,362.691 111.414,361.915 112.958 C 361.673 113.440,361.420 113.833,361.352 113.833 C 361.200 113.833,360.667 114.926,360.667 115.238 C 360.667 115.362,360.555 115.507,360.418 115.560 C 360.281 115.613,360.047 115.959,359.898 116.331 C 359.309 117.804,361.710 117.667,336.562 117.667 L 314.336 117.667 313.881 117.156 C 313.631 116.876,313.247 116.295,313.026 115.865 C 312.806 115.435,312.445 114.727,312.223 114.292 C 312.002 113.856,311.766 113.500,311.700 113.500 C 311.633 113.500,311.442 113.181,311.275 112.792 C 311.107 112.402,310.837 111.933,310.673 111.750 C 310.509 111.567,310.288 111.146,310.182 110.816 C 310.077 110.486,309.805 110.042,309.578 109.829 C 309.352 109.616,309.167 109.318,309.167 109.167 C 309.167 109.016,308.944 108.598,308.671 108.238 C 308.399 107.878,308.174 107.461,308.171 107.312 C 308.169 107.163,308.042 106.938,307.890 106.812 C 307.737 106.686,307.464 106.246,307.282 105.833 C 307.101 105.421,306.776 104.871,306.560 104.612 C 306.343 104.353,306.166 104.016,306.166 103.862 C 306.166 103.709,305.941 103.321,305.667 103.000 C 305.392 102.679,305.167 102.291,305.167 102.137 C 305.167 101.983,305.035 101.729,304.875 101.573 C 304.587 101.292,304.092 100.413,303.263 98.708 C 303.029 98.227,302.770 97.833,302.687 97.833 C 302.604 97.833,302.413 97.524,302.262 97.147 C 302.111 96.770,301.802 96.219,301.577 95.923 C 301.351 95.627,301.167 95.270,301.167 95.130 C 301.167 94.989,301.042 94.771,300.890 94.645 C 300.737 94.520,300.438 94.023,300.225 93.542 C 300.012 93.060,299.767 92.667,299.682 92.667 C 299.596 92.667,299.441 92.409,299.337 92.095 C 299.233 91.780,298.927 91.245,298.657 90.905 C 298.388 90.565,298.167 90.152,298.167 89.987 C 298.167 89.822,297.942 89.441,297.667 89.140 C 297.392 88.839,297.167 88.474,297.167 88.329 C 297.167 88.183,296.981 87.813,296.754 87.505 C 296.527 87.198,296.259 86.696,296.158 86.390 C 296.057 86.084,295.901 85.833,295.811 85.833 C 295.721 85.833,295.491 85.477,295.300 85.042 C 295.109 84.606,294.776 84.038,294.560 83.779 C 294.343 83.520,294.167 83.168,294.167 82.997 C 294.167 82.827,293.942 82.441,293.667 82.140 C 293.392 81.839,293.167 81.472,293.167 81.326 C 293.167 81.179,292.944 80.765,292.671 80.405 C 292.399 80.045,292.174 79.635,292.171 79.495 C 292.169 79.355,292.052 79.077,291.911 78.876 C 291.728 78.615,291.703 78.428,291.821 78.214 C 291.911 78.051,292.143 77.579,292.337 77.167 C 292.908 75.948,293.392 75.091,293.792 74.591 C 293.998 74.333,294.167 73.978,294.167 73.803 C 294.167 73.628,294.356 73.309,294.587 73.095 C 294.818 72.880,295.125 72.359,295.269 71.936 C 295.413 71.513,295.602 71.167,295.688 71.167 C 295.775 71.167,295.990 70.829,296.167 70.416 C 296.344 70.002,296.642 69.501,296.828 69.301 C 297.014 69.101,297.169 68.820,297.171 68.677 C 297.174 68.534,297.399 68.122,297.671 67.762 C 297.944 67.402,298.167 67.014,298.167 66.900 C 298.167 66.786,298.343 66.480,298.560 66.221 C 298.776 65.962,299.115 65.412,299.314 65.000 C 299.818 63.955,300.449 62.868,300.838 62.373 C 301.019 62.143,301.167 61.858,301.167 61.740 C 301.167 61.622,301.343 61.314,301.559 61.054 C 301.775 60.795,302.041 60.308,302.151 59.972 C 302.261 59.635,302.469 59.261,302.615 59.141 C 302.760 59.020,303.024 58.583,303.201 58.169 C 303.379 57.755,303.634 57.295,303.769 57.145 C 304.028 56.860,304.590 55.870,305.132 54.748 C 305.309 54.380,305.573 53.980,305.719 53.859 C 305.864 53.739,306.071 53.365,306.179 53.028 C 306.286 52.692,306.509 52.267,306.673 52.083 C 306.837 51.900,307.107 51.431,307.275 51.042 C 307.442 50.652,307.637 50.333,307.708 50.333 C 307.779 50.333,308.029 49.940,308.263 49.458 C 309.000 47.942,309.408 47.210,309.692 46.892 C 309.843 46.722,310.076 46.318,310.210 45.993 C 310.344 45.669,310.558 45.294,310.685 45.160 C 310.812 45.026,311.104 44.553,311.333 44.108 C 312.146 42.530,312.421 42.055,312.792 41.591 C 312.998 41.333,313.167 40.988,313.167 40.824 C 313.167 40.661,313.461 40.221,313.820 39.847 L 314.474 39.167 336.529 39.169 C 353.968 39.171,358.671 39.216,359.000 39.382 M319.583 46.844 C 319.203 46.956,319.010 47.171,318.775 47.745 C 318.606 48.160,318.409 48.500,318.337 48.500 C 318.266 48.500,318.046 48.875,317.849 49.333 C 317.652 49.792,317.426 50.167,317.347 50.167 C 317.268 50.167,317.076 50.485,316.921 50.875 C 316.767 51.265,316.508 51.733,316.347 51.917 C 316.186 52.100,315.955 52.512,315.833 52.833 C 315.712 53.154,315.475 53.572,315.306 53.761 C 315.138 53.950,315.000 54.175,314.999 54.261 C 314.999 54.347,314.830 54.675,314.624 54.991 C 314.009 55.936,313.376 57.031,312.920 57.942 C 312.684 58.414,312.384 58.889,312.254 58.997 C 312.124 59.105,311.930 59.469,311.823 59.805 C 311.717 60.141,311.537 60.492,311.423 60.584 C 311.309 60.676,311.052 61.051,310.851 61.417 C 310.651 61.784,310.229 62.533,309.914 63.083 C 309.599 63.633,309.146 64.477,308.908 64.958 C 308.670 65.440,308.417 65.833,308.346 65.833 C 308.275 65.833,308.079 66.152,307.911 66.542 C 307.742 66.931,307.506 67.368,307.386 67.513 C 307.181 67.759,306.754 68.524,305.949 70.083 C 305.760 70.450,305.438 70.954,305.234 71.204 C 305.029 71.454,304.811 71.891,304.748 72.174 C 304.686 72.457,304.539 72.726,304.422 72.771 C 304.304 72.816,304.072 73.167,303.906 73.551 C 303.740 73.936,303.502 74.372,303.378 74.521 C 303.110 74.843,302.524 75.899,301.911 77.167 C 301.667 77.671,301.381 78.137,301.275 78.204 C 301.132 78.293,301.136 78.399,301.293 78.620 C 301.408 78.783,301.549 79.029,301.607 79.167 C 302.066 80.262,303.108 82.193,303.310 82.322 C 303.391 82.374,303.627 82.791,303.834 83.248 C 304.041 83.705,304.302 84.155,304.413 84.248 C 304.524 84.341,304.715 84.679,304.838 85.000 C 304.961 85.321,305.228 85.788,305.433 86.037 C 305.637 86.287,305.892 86.756,305.999 87.079 C 306.105 87.402,306.260 87.667,306.342 87.667 C 306.424 87.667,306.652 88.042,306.849 88.500 C 307.046 88.958,307.259 89.333,307.322 89.333 C 307.385 89.333,307.573 89.652,307.740 90.042 C 307.908 90.431,308.173 90.900,308.329 91.083 C 308.485 91.267,308.708 91.658,308.825 91.954 C 308.941 92.249,309.211 92.694,309.424 92.942 C 309.638 93.190,309.859 93.581,309.917 93.811 C 309.975 94.040,310.204 94.445,310.427 94.710 C 310.651 94.975,310.833 95.293,310.833 95.417 C 310.833 95.540,311.007 95.853,311.220 96.112 C 311.432 96.371,311.706 96.846,311.829 97.167 C 311.952 97.487,312.182 97.862,312.339 98.000 C 312.496 98.138,312.756 98.606,312.918 99.042 C 313.080 99.477,313.275 99.833,313.353 99.833 C 313.430 99.833,313.664 100.165,313.872 100.570 C 314.872 102.519,315.352 103.333,315.502 103.333 C 315.593 103.333,315.667 103.472,315.667 103.642 C 315.667 103.812,315.852 104.206,316.079 104.517 C 316.305 104.828,316.685 105.458,316.923 105.917 C 317.696 107.410,318.148 108.203,318.382 108.479 C 318.508 108.628,318.710 108.997,318.829 109.300 C 319.233 110.320,319.330 110.333,326.166 110.333 L 332.348 110.333 332.758 109.924 L 333.167 109.515 333.167 99.359 C 333.167 90.251,333.194 89.192,333.430 89.101 C 333.886 88.926,339.501 88.989,339.844 89.173 C 340.158 89.340,340.167 89.630,340.167 99.430 L 340.167 109.516 340.608 109.925 L 341.049 110.333 347.350 110.333 L 353.651 110.333 353.951 109.906 C 354.115 109.671,354.421 109.264,354.629 109.002 C 354.838 108.740,355.094 108.276,355.198 107.971 C 355.302 107.666,355.562 107.205,355.777 106.946 C 355.991 106.686,356.169 106.386,356.171 106.279 C 356.174 106.171,356.399 105.789,356.671 105.429 C 356.944 105.069,357.167 104.685,357.167 104.577 C 357.167 104.468,357.392 104.096,357.667 103.750 C 357.942 103.404,358.167 102.987,358.167 102.823 C 358.167 102.660,358.346 102.313,358.564 102.053 C 358.783 101.793,359.085 101.281,359.236 100.915 C 359.387 100.549,359.609 100.175,359.730 100.083 C 359.850 99.992,360.115 99.579,360.318 99.167 C 361.036 97.712,361.420 97.030,361.692 96.725 C 361.843 96.555,362.089 96.117,362.239 95.750 C 362.388 95.383,362.602 95.008,362.714 94.917 C 362.825 94.825,363.090 94.412,363.302 94.000 C 363.514 93.587,363.940 92.800,364.249 92.250 C 364.559 91.700,364.924 91.025,365.061 90.750 C 365.198 90.475,365.503 89.992,365.738 89.676 C 365.974 89.360,366.167 89.010,366.167 88.897 C 366.167 88.784,366.343 88.480,366.560 88.221 C 366.776 87.962,367.116 87.412,367.315 87.000 C 367.955 85.676,368.613 84.530,368.894 84.249 C 369.044 84.099,369.167 83.842,369.167 83.677 C 369.167 83.513,369.343 83.200,369.559 82.981 C 369.775 82.762,370.042 82.308,370.151 81.972 C 370.261 81.635,370.467 81.263,370.609 81.145 C 370.752 81.027,371.050 80.552,371.271 80.090 C 371.493 79.628,371.780 79.067,371.910 78.844 C 372.095 78.524,372.103 78.369,371.948 78.116 C 371.462 77.325,370.650 75.853,370.320 75.167 C 370.121 74.754,369.837 74.278,369.688 74.108 C 369.407 73.789,368.994 73.045,368.263 71.542 C 368.029 71.060,367.770 70.667,367.687 70.667 C 367.604 70.667,367.411 70.353,367.257 69.969 C 367.104 69.586,366.796 69.055,366.572 68.790 C 366.349 68.525,366.166 68.182,366.166 68.029 C 366.166 67.875,365.941 67.487,365.667 67.167 C 365.392 66.846,365.167 66.452,365.167 66.292 C 365.167 66.131,365.032 65.866,364.868 65.701 C 364.704 65.537,364.467 65.143,364.341 64.826 C 364.216 64.509,363.948 64.063,363.746 63.833 C 363.544 63.604,363.292 63.156,363.185 62.838 C 363.079 62.520,362.816 62.070,362.601 61.838 C 362.386 61.606,362.165 61.225,362.110 60.990 C 362.054 60.755,361.820 60.342,361.588 60.073 C 361.357 59.804,361.167 59.452,361.167 59.292 C 361.167 59.131,361.033 58.866,360.869 58.703 C 360.706 58.539,360.434 58.108,360.265 57.744 C 360.097 57.381,359.827 56.933,359.667 56.750 C 359.506 56.567,359.288 56.146,359.182 55.816 C 359.077 55.486,358.805 55.042,358.578 54.829 C 358.352 54.616,358.167 54.315,358.167 54.160 C 358.167 54.005,357.998 53.667,357.792 53.409 C 357.396 52.914,356.965 52.153,356.263 50.708 C 356.029 50.227,355.772 49.833,355.691 49.833 C 355.610 49.833,355.384 49.477,355.188 49.042 C 354.992 48.606,354.649 48.003,354.427 47.700 C 354.204 47.398,353.992 47.061,353.956 46.950 C 353.826 46.562,340.952 46.674,340.517 47.067 C 340.168 47.384,340.167 47.430,340.167 57.417 C 340.167 66.924,340.151 67.463,339.862 67.724 C 339.474 68.075,333.709 68.142,333.367 67.800 C 333.216 67.649,333.166 65.132,333.164 57.508 C 333.161 46.754,333.187 47.078,332.323 46.830 C 331.614 46.627,320.280 46.639,319.583 46.844 M332.239 47.163 L 332.667 47.325 332.667 57.428 C 332.667 68.422,332.662 68.367,333.595 68.601 C 334.783 68.899,339.811 68.580,340.237 68.179 L 340.667 67.775 340.667 57.692 C 340.667 48.544,340.692 47.581,340.942 47.305 C 341.200 47.020,341.620 47.000,347.401 47.003 L 353.583 47.007 354.204 47.980 C 354.545 48.515,354.906 49.170,355.007 49.434 C 355.107 49.699,355.316 50.055,355.470 50.225 C 355.751 50.534,356.161 51.264,356.843 52.667 C 357.044 53.079,357.330 53.555,357.479 53.725 C 357.741 54.023,357.942 54.378,358.833 56.108 C 359.063 56.553,359.354 57.026,359.481 57.160 C 359.609 57.294,359.823 57.669,359.956 57.993 C 360.090 58.318,360.324 58.722,360.475 58.892 C 360.752 59.202,361.168 59.945,361.843 61.333 C 362.044 61.746,362.305 62.196,362.423 62.333 C 362.689 62.641,363.369 63.831,363.852 64.833 C 364.051 65.246,364.391 65.795,364.607 66.054 C 364.823 66.314,365.000 66.622,365.000 66.740 C 365.000 66.858,365.145 67.140,365.323 67.365 C 365.639 67.767,366.209 68.752,366.902 70.090 C 367.093 70.461,367.414 70.990,367.614 71.267 C 367.814 71.544,368.028 71.972,368.090 72.218 C 368.152 72.465,368.263 72.667,368.337 72.667 C 368.410 72.667,368.639 73.023,368.844 73.458 C 369.050 73.894,369.313 74.362,369.428 74.500 C 370.271 75.501,371.686 78.534,371.444 78.821 C 371.322 78.965,371.092 79.439,370.931 79.874 C 370.771 80.309,370.544 80.722,370.426 80.791 C 370.309 80.860,370.048 81.254,369.846 81.667 C 369.157 83.072,368.750 83.800,368.479 84.108 C 368.330 84.278,368.047 84.754,367.851 85.167 C 367.655 85.579,367.235 86.329,366.917 86.833 C 366.600 87.337,366.219 88.008,366.071 88.323 C 365.924 88.638,365.622 89.132,365.401 89.422 C 365.181 89.711,365.000 90.046,365.000 90.167 C 365.000 90.287,364.815 90.627,364.590 90.923 C 364.364 91.219,364.056 91.770,363.905 92.147 C 363.754 92.524,363.572 92.833,363.501 92.833 C 363.430 92.833,363.172 93.227,362.928 93.708 C 362.264 95.016,361.697 95.992,361.329 96.460 C 361.148 96.690,361.000 96.975,361.000 97.093 C 361.000 97.211,360.811 97.533,360.579 97.808 C 360.347 98.083,360.073 98.558,359.969 98.863 C 359.865 99.167,359.605 99.629,359.390 99.888 C 359.176 100.147,359.000 100.430,359.000 100.516 C 359.000 100.603,358.811 100.960,358.580 101.309 C 358.106 102.024,357.519 103.083,357.026 104.107 C 356.844 104.486,356.609 104.849,356.505 104.914 C 356.401 104.978,356.128 105.418,355.899 105.890 C 355.371 106.982,354.982 107.676,354.435 108.503 C 354.196 108.864,354.000 109.232,354.000 109.320 C 354.000 110.090,341.885 110.434,341.026 109.689 L 340.667 109.378 340.667 99.270 L 340.667 89.162 340.125 88.832 C 339.637 88.534,339.280 88.501,336.534 88.501 L 333.484 88.500 333.075 88.941 L 332.667 89.382 332.667 99.421 C 332.667 108.556,332.642 109.480,332.391 109.688 C 332.168 109.873,330.926 109.917,325.921 109.917 C 319.198 109.917,319.379 109.941,319.083 108.992 C 319.014 108.767,318.802 108.365,318.614 108.097 C 318.238 107.564,317.710 106.631,317.172 105.549 C 316.981 105.163,316.743 104.797,316.643 104.736 C 316.544 104.674,316.292 104.237,316.082 103.764 C 315.873 103.290,315.589 102.810,315.451 102.695 C 315.312 102.580,315.149 102.283,315.088 102.035 C 315.026 101.787,314.803 101.396,314.590 101.167 C 314.378 100.938,314.149 100.563,314.083 100.333 C 314.016 100.104,313.793 99.692,313.588 99.417 C 313.383 99.142,313.158 98.729,313.089 98.500 C 313.019 98.271,312.792 97.896,312.583 97.667 C 312.375 97.438,312.150 97.063,312.083 96.833 C 312.017 96.604,311.793 96.229,311.585 96.000 C 311.377 95.771,311.120 95.311,311.014 94.978 C 310.908 94.646,310.680 94.247,310.509 94.091 C 310.337 93.936,310.150 93.623,310.093 93.395 C 310.036 93.168,309.767 92.675,309.495 92.299 C 309.223 91.924,309.000 91.541,309.000 91.449 C 309.000 91.357,308.823 91.049,308.607 90.766 C 308.391 90.482,308.158 90.063,308.089 89.833 C 308.019 89.604,307.792 89.229,307.583 89.000 C 307.375 88.771,307.149 88.396,307.083 88.167 C 307.016 87.938,306.783 87.511,306.564 87.219 C 306.345 86.928,306.167 86.620,306.167 86.536 C 306.167 86.452,305.944 86.076,305.672 85.701 C 305.400 85.325,305.130 84.829,305.072 84.599 C 305.015 84.369,304.854 84.087,304.716 83.972 C 304.578 83.857,304.297 83.385,304.093 82.923 C 303.888 82.461,303.596 81.980,303.444 81.855 C 303.291 81.729,303.167 81.533,303.167 81.420 C 303.167 81.306,302.967 80.921,302.723 80.565 C 301.632 78.970,301.603 77.881,302.618 76.603 C 302.821 76.348,303.038 75.977,303.100 75.778 C 303.163 75.579,303.383 75.192,303.588 74.917 C 303.793 74.642,304.018 74.229,304.087 74.000 C 304.156 73.771,304.384 73.377,304.595 73.126 C 304.805 72.874,305.029 72.499,305.092 72.293 C 305.155 72.086,305.303 71.804,305.421 71.667 C 305.625 71.430,306.097 70.608,306.922 69.056 C 307.124 68.674,307.440 68.149,307.623 67.889 C 307.806 67.629,308.007 67.254,308.068 67.055 C 308.130 66.857,308.336 66.497,308.525 66.256 C 308.835 65.861,309.172 65.273,309.956 63.750 C 310.098 63.475,310.380 63.025,310.583 62.750 C 310.786 62.475,311.011 62.063,311.082 61.833 C 311.154 61.604,311.384 61.211,311.595 60.959 C 311.805 60.708,312.029 60.333,312.094 60.126 C 312.158 59.919,312.366 59.529,312.557 59.259 C 312.885 58.793,313.067 58.477,313.905 56.917 C 314.102 56.550,314.467 55.951,314.715 55.586 C 314.963 55.221,315.167 54.858,315.167 54.779 C 315.167 54.700,315.326 54.411,315.522 54.136 C 315.717 53.862,316.042 53.326,316.245 52.944 C 317.069 51.392,317.541 50.570,317.745 50.333 C 317.864 50.196,318.016 49.896,318.083 49.667 C 318.150 49.438,318.343 49.099,318.511 48.914 C 318.680 48.730,318.933 48.303,319.074 47.965 C 319.215 47.628,319.462 47.275,319.623 47.181 C 320.010 46.956,331.651 46.939,332.239 47.163 " stroke="none" fill="#ec7c84" fill-rule="evenodd"></path><path id="path3" d="M313.640 38.854 C 313.228 39.006,312.667 39.862,312.667 40.339 C 312.667 40.453,312.482 40.716,312.257 40.925 C 312.031 41.134,311.797 41.518,311.735 41.777 C 311.674 42.037,311.454 42.438,311.247 42.667 C 311.040 42.896,310.815 43.271,310.746 43.500 C 310.677 43.729,310.444 44.129,310.227 44.388 C 310.010 44.647,309.784 45.059,309.724 45.305 C 309.664 45.550,309.445 45.910,309.238 46.105 C 309.030 46.300,308.788 46.722,308.699 47.044 C 308.610 47.366,308.376 47.790,308.180 47.987 C 307.984 48.183,307.779 48.563,307.726 48.830 C 307.672 49.097,307.484 49.447,307.308 49.606 C 307.132 49.766,306.837 50.201,306.652 50.573 C 306.286 51.313,305.628 52.443,305.042 53.342 C 304.836 53.658,304.665 54.029,304.661 54.167 C 304.656 54.304,304.431 54.676,304.160 54.994 C 303.889 55.311,303.667 55.694,303.667 55.844 C 303.667 55.995,303.485 56.314,303.263 56.554 C 303.041 56.793,302.807 57.155,302.742 57.358 C 302.678 57.561,302.409 58.025,302.146 58.389 C 301.882 58.752,301.664 59.170,301.660 59.317 C 301.656 59.463,301.431 59.843,301.160 60.160 C 300.889 60.478,300.667 60.906,300.667 61.113 C 300.667 61.319,300.519 61.567,300.339 61.664 C 300.159 61.760,299.879 62.213,299.717 62.669 C 299.555 63.126,299.360 63.500,299.285 63.500 C 299.210 63.500,298.998 63.819,298.814 64.208 C 298.630 64.598,298.297 65.172,298.073 65.483 C 297.850 65.794,297.667 66.191,297.667 66.363 C 297.667 66.536,297.556 66.720,297.421 66.771 C 297.131 66.883,296.667 67.754,296.667 68.186 C 296.667 68.352,296.526 68.564,296.353 68.656 C 296.181 68.748,295.913 69.145,295.757 69.537 C 295.601 69.929,295.338 70.400,295.172 70.583 C 295.007 70.767,294.815 71.104,294.746 71.333 C 294.677 71.563,294.440 71.967,294.218 72.232 C 293.997 72.496,293.771 72.934,293.717 73.204 C 293.663 73.474,293.515 73.735,293.387 73.785 C 293.094 73.897,292.667 74.709,292.667 75.153 C 292.667 75.337,292.527 75.563,292.356 75.654 C 292.185 75.746,291.944 76.067,291.821 76.369 C 291.697 76.670,291.418 77.179,291.200 77.500 C 290.743 78.175,290.784 78.989,291.304 79.566 C 291.478 79.759,291.706 80.172,291.811 80.485 C 291.915 80.797,292.141 81.151,292.312 81.270 C 292.483 81.390,292.666 81.705,292.719 81.971 C 292.772 82.236,292.996 82.670,293.216 82.935 C 293.436 83.200,293.667 83.625,293.729 83.879 C 293.791 84.134,293.988 84.488,294.167 84.667 C 294.346 84.846,294.602 85.255,294.736 85.576 C 294.870 85.896,295.131 86.321,295.315 86.519 C 295.499 86.716,295.698 87.096,295.756 87.363 C 295.815 87.629,296.034 88.013,296.244 88.215 C 296.454 88.418,296.672 88.784,296.729 89.029 C 296.786 89.274,297.010 89.686,297.226 89.945 C 297.442 90.205,297.712 90.703,297.826 91.053 C 297.940 91.404,298.135 91.729,298.259 91.776 C 298.382 91.824,298.608 92.189,298.760 92.587 C 298.913 92.986,299.137 93.350,299.259 93.397 C 299.381 93.444,299.574 93.791,299.687 94.169 C 299.800 94.547,300.067 94.993,300.280 95.160 C 300.493 95.328,300.667 95.604,300.667 95.774 C 300.668 96.141,301.264 97.167,301.477 97.167 C 301.558 97.167,301.668 97.381,301.720 97.643 C 301.773 97.906,302.002 98.342,302.230 98.613 C 302.458 98.884,302.696 99.309,302.758 99.557 C 302.820 99.805,302.997 100.100,303.152 100.212 C 303.306 100.325,303.566 100.774,303.730 101.210 C 303.895 101.647,304.154 102.071,304.307 102.152 C 304.459 102.234,304.687 102.648,304.812 103.072 C 304.937 103.496,305.181 103.918,305.353 104.011 C 305.526 104.103,305.667 104.315,305.667 104.481 C 305.667 104.647,305.873 105.076,306.126 105.433 C 306.378 105.791,306.714 106.365,306.873 106.708 C 307.031 107.052,307.235 107.333,307.324 107.333 C 307.414 107.333,307.570 107.642,307.672 108.019 C 307.773 108.395,308.039 108.873,308.261 109.079 C 308.484 109.286,308.667 109.559,308.667 109.686 C 308.668 109.813,308.836 110.175,309.042 110.491 C 309.695 111.492,310.303 112.555,310.739 113.458 C 310.972 113.940,311.237 114.333,311.328 114.333 C 311.419 114.333,311.541 114.540,311.600 114.792 C 311.658 115.044,311.922 115.527,312.186 115.865 C 312.450 116.204,312.667 116.556,312.667 116.649 C 312.667 117.060,313.103 117.711,313.524 117.929 C 313.994 118.172,358.720 118.304,359.611 118.065 C 359.843 118.003,360.099 117.675,360.324 117.151 C 360.518 116.701,360.743 116.333,360.825 116.333 C 360.907 116.333,361.061 116.069,361.168 115.746 C 361.275 115.423,361.531 114.954,361.738 114.704 C 361.944 114.454,362.201 113.994,362.307 113.682 C 362.414 113.370,362.645 113.013,362.821 112.890 C 362.996 112.767,363.190 112.440,363.251 112.162 C 363.312 111.885,363.529 111.454,363.734 111.204 C 363.938 110.954,364.206 110.487,364.329 110.167 C 364.451 109.846,364.647 109.504,364.764 109.407 C 364.882 109.309,365.101 108.921,365.252 108.544 C 365.403 108.167,365.628 107.820,365.754 107.772 C 365.879 107.724,366.074 107.375,366.187 106.997 C 366.300 106.620,366.524 106.219,366.684 106.107 C 366.844 105.995,367.104 105.568,367.261 105.160 C 367.419 104.751,367.640 104.340,367.753 104.247 C 367.865 104.154,368.124 103.691,368.327 103.218 C 368.531 102.744,368.803 102.317,368.932 102.267 C 369.061 102.218,369.167 102.035,369.167 101.861 C 369.167 101.688,369.397 101.256,369.678 100.902 C 369.960 100.548,370.232 100.047,370.284 99.790 C 370.335 99.532,370.512 99.227,370.676 99.112 C 370.840 98.997,371.105 98.568,371.265 98.160 C 371.424 97.751,371.692 97.282,371.861 97.119 C 372.029 96.955,372.167 96.743,372.167 96.649 C 372.167 96.554,372.381 96.163,372.644 95.780 C 372.906 95.397,373.175 94.912,373.240 94.703 C 373.306 94.494,373.539 94.128,373.759 93.891 C 373.979 93.654,374.206 93.210,374.263 92.904 C 374.321 92.597,374.535 92.240,374.742 92.104 C 374.955 91.965,375.207 91.534,375.327 91.107 C 375.443 90.693,375.639 90.316,375.763 90.268 C 375.888 90.220,376.108 89.898,376.253 89.551 C 376.397 89.205,376.654 88.770,376.822 88.586 C 376.991 88.401,377.183 88.063,377.250 87.833 C 377.316 87.604,377.543 87.229,377.753 87.000 C 377.964 86.771,378.212 86.300,378.306 85.953 C 378.399 85.606,378.621 85.194,378.798 85.036 C 378.976 84.879,379.218 84.487,379.336 84.167 C 379.455 83.846,379.641 83.508,379.750 83.417 C 379.859 83.325,380.106 82.894,380.298 82.458 C 380.490 82.023,380.721 81.667,380.811 81.667 C 380.901 81.667,381.064 81.385,381.174 81.042 C 381.284 80.698,381.543 80.229,381.750 80.000 C 382.375 79.308,382.429 77.000,381.821 77.000 C 381.730 77.000,381.509 76.659,381.330 76.242 C 381.151 75.826,380.817 75.237,380.586 74.935 C 380.355 74.633,380.167 74.264,380.167 74.115 C 380.167 73.967,380.034 73.774,379.871 73.687 C 379.709 73.600,379.437 73.141,379.267 72.668 C 379.096 72.194,378.858 71.768,378.736 71.722 C 378.615 71.675,378.431 71.379,378.327 71.064 C 378.223 70.749,377.967 70.287,377.758 70.037 C 377.550 69.788,377.323 69.396,377.254 69.167 C 377.185 68.938,376.991 68.599,376.822 68.414 C 376.654 68.230,376.392 67.782,376.241 67.420 C 376.089 67.058,375.872 66.684,375.758 66.589 C 375.645 66.494,375.453 66.154,375.332 65.833 C 375.212 65.512,374.947 65.063,374.744 64.833 C 374.540 64.604,374.282 64.130,374.170 63.780 C 374.058 63.430,373.865 63.104,373.741 63.057 C 373.617 63.009,373.427 62.696,373.317 62.360 C 373.208 62.025,372.948 61.546,372.740 61.296 C 372.532 61.046,372.277 60.584,372.173 60.269 C 372.069 59.954,371.879 59.656,371.751 59.607 C 371.623 59.558,371.426 59.209,371.313 58.831 C 371.200 58.453,370.971 58.048,370.804 57.932 C 370.637 57.815,370.415 57.464,370.311 57.151 C 370.206 56.839,369.984 56.432,369.818 56.248 C 369.652 56.063,369.392 55.616,369.241 55.253 C 369.089 54.891,368.872 54.517,368.758 54.422 C 368.645 54.328,368.453 53.987,368.332 53.667 C 368.211 53.346,367.980 52.933,367.818 52.750 C 367.655 52.567,367.370 52.060,367.184 51.625 C 366.998 51.190,366.773 50.833,366.686 50.833 C 366.598 50.833,366.434 50.552,366.322 50.208 C 366.210 49.865,365.947 49.377,365.737 49.126 C 365.528 48.874,365.305 48.499,365.242 48.293 C 365.180 48.086,364.999 47.767,364.841 47.583 C 364.683 47.400,364.456 46.987,364.337 46.667 C 364.218 46.346,363.978 45.956,363.803 45.801 C 363.629 45.646,363.370 45.177,363.227 44.759 C 363.085 44.342,362.900 44.000,362.816 44.000 C 362.731 44.000,362.488 43.606,362.275 43.125 C 362.062 42.644,361.767 42.151,361.621 42.030 C 361.475 41.909,361.307 41.591,361.248 41.322 C 361.189 41.053,361.008 40.740,360.846 40.625 C 360.684 40.511,360.461 40.141,360.350 39.805 C 359.977 38.667,361.848 38.753,336.849 38.720 C 322.283 38.701,313.924 38.750,313.640 38.854 M359.506 39.250 C 359.711 39.433,359.989 39.846,360.122 40.167 C 360.256 40.487,360.499 40.900,360.663 41.083 C 360.827 41.267,361.017 41.599,361.085 41.822 C 361.153 42.045,361.424 42.525,361.687 42.889 C 361.951 43.252,362.167 43.619,362.167 43.703 C 362.167 43.787,362.345 44.094,362.564 44.386 C 362.783 44.678,363.018 45.104,363.087 45.333 C 363.156 45.563,363.384 45.956,363.595 46.207 C 363.805 46.459,364.030 46.834,364.096 47.041 C 364.161 47.248,364.383 47.642,364.588 47.917 C 364.793 48.192,365.013 48.586,365.076 48.793 C 365.138 48.999,365.362 49.374,365.572 49.626 C 365.782 49.877,366.013 50.271,366.085 50.500 C 366.156 50.729,366.391 51.149,366.607 51.432 C 366.823 51.716,367.000 52.024,367.000 52.116 C 367.000 52.208,367.216 52.581,367.479 52.945 C 367.743 53.309,368.014 53.789,368.082 54.012 C 368.149 54.234,368.339 54.567,368.503 54.750 C 368.667 54.933,368.925 55.382,369.075 55.748 C 369.226 56.113,369.487 56.563,369.655 56.748 C 369.824 56.932,370.016 57.271,370.083 57.500 C 370.150 57.729,370.343 58.068,370.511 58.252 C 370.680 58.437,370.929 58.855,371.066 59.182 C 371.202 59.509,371.427 59.870,371.565 59.985 C 371.703 60.100,371.904 60.469,372.012 60.805 C 372.119 61.141,372.377 61.604,372.585 61.833 C 372.793 62.063,373.019 62.438,373.089 62.667 C 373.158 62.896,373.391 63.315,373.607 63.599 C 373.823 63.883,374.000 64.187,374.000 64.275 C 374.000 64.362,374.216 64.730,374.479 65.092 C 374.742 65.454,375.015 65.938,375.085 66.167 C 375.155 66.396,375.384 66.789,375.595 67.041 C 375.805 67.292,376.029 67.667,376.092 67.874 C 376.155 68.081,376.303 68.362,376.421 68.500 C 376.625 68.737,377.097 69.559,377.922 71.111 C 378.124 71.492,378.440 72.017,378.623 72.277 C 378.806 72.537,379.012 72.938,379.080 73.167 C 379.148 73.396,379.375 73.771,379.583 74.000 C 379.792 74.229,380.018 74.599,380.085 74.822 C 380.153 75.045,380.424 75.525,380.687 75.889 C 380.951 76.252,381.167 76.618,381.167 76.701 C 381.167 76.783,381.354 77.127,381.583 77.464 C 382.104 78.230,382.110 78.741,381.607 79.401 C 381.391 79.685,381.158 80.104,381.088 80.333 C 381.019 80.563,380.827 80.900,380.663 81.083 C 380.499 81.267,380.242 81.716,380.091 82.081 C 379.941 82.446,379.680 82.896,379.511 83.081 C 379.343 83.266,379.149 83.604,379.080 83.833 C 379.011 84.063,378.782 84.456,378.572 84.707 C 378.362 84.959,378.138 85.334,378.076 85.541 C 378.013 85.748,377.793 86.142,377.588 86.417 C 377.383 86.692,377.156 87.104,377.085 87.333 C 377.013 87.563,376.782 87.956,376.572 88.207 C 376.362 88.459,376.136 88.834,376.071 89.041 C 376.006 89.248,375.775 89.649,375.559 89.932 C 375.343 90.216,375.167 90.524,375.167 90.616 C 375.167 90.708,374.951 91.081,374.687 91.445 C 374.424 91.809,374.152 92.283,374.083 92.500 C 374.015 92.717,373.743 93.191,373.479 93.555 C 373.216 93.919,373.000 94.292,373.000 94.384 C 373.000 94.476,372.827 94.784,372.615 95.068 C 372.403 95.351,372.132 95.825,372.014 96.119 C 371.895 96.414,371.692 96.743,371.563 96.850 C 371.435 96.957,371.183 97.353,371.004 97.730 C 370.825 98.108,370.412 98.867,370.087 99.417 C 369.761 99.967,369.349 100.721,369.170 101.094 C 368.992 101.466,368.693 101.909,368.506 102.078 C 368.319 102.247,368.166 102.505,368.166 102.651 C 368.166 102.797,367.997 103.176,367.791 103.492 C 367.390 104.109,366.830 105.074,366.093 106.417 C 365.842 106.875,365.540 107.362,365.421 107.500 C 365.303 107.638,365.155 107.919,365.092 108.126 C 365.029 108.333,364.805 108.708,364.595 108.959 C 364.384 109.211,364.155 109.604,364.085 109.833 C 364.015 110.063,363.742 110.546,363.479 110.908 C 363.216 111.270,363.000 111.658,363.000 111.770 C 363.000 111.882,362.823 112.186,362.606 112.446 C 362.390 112.705,362.156 113.104,362.087 113.333 C 362.018 113.563,361.825 113.900,361.659 114.083 C 361.492 114.267,361.207 114.765,361.025 115.190 C 360.843 115.615,360.610 116.015,360.507 116.079 C 360.404 116.143,360.198 116.497,360.050 116.867 C 359.566 118.078,361.171 118.000,336.597 118.000 C 320.265 118.000,314.406 117.950,314.094 117.808 C 313.676 117.618,313.356 117.224,312.822 116.250 C 312.672 115.975,312.343 115.375,312.092 114.917 C 311.842 114.458,311.540 113.971,311.422 113.833 C 311.304 113.696,311.046 113.246,310.849 112.833 C 310.356 111.802,309.722 110.707,309.329 110.207 C 309.148 109.977,309.000 109.692,309.000 109.574 C 309.000 109.456,308.823 109.147,308.606 108.888 C 308.390 108.629,308.156 108.229,308.087 108.000 C 308.018 107.771,307.789 107.354,307.579 107.073 C 307.369 106.792,307.088 106.301,306.955 105.983 C 306.822 105.664,306.601 105.291,306.463 105.154 C 306.326 105.016,306.048 104.569,305.846 104.160 C 305.126 102.704,304.746 102.029,304.475 101.725 C 304.324 101.555,304.077 101.117,303.928 100.750 C 303.778 100.383,303.564 100.008,303.453 99.917 C 303.341 99.825,303.063 99.386,302.833 98.941 C 301.936 97.198,301.740 96.856,301.471 96.558 C 301.318 96.389,301.142 96.047,301.080 95.798 C 301.018 95.550,300.794 95.160,300.583 94.932 C 300.371 94.703,300.112 94.256,300.007 93.938 C 299.902 93.620,299.700 93.263,299.557 93.145 C 299.415 93.027,299.116 92.552,298.894 92.090 C 298.354 90.966,297.730 89.883,297.329 89.373 C 297.148 89.143,297.000 88.858,297.000 88.740 C 297.000 88.622,296.811 88.300,296.579 88.025 C 296.347 87.750,296.073 87.276,295.969 86.971 C 295.865 86.666,295.605 86.205,295.390 85.946 C 295.176 85.686,295.000 85.394,295.000 85.295 C 295.000 85.196,294.824 84.883,294.608 84.599 C 294.393 84.315,294.050 83.746,293.847 83.333 C 293.160 81.936,292.751 81.201,292.489 80.892 C 292.345 80.722,291.984 80.077,291.686 79.457 L 291.145 78.331 291.479 77.905 C 291.664 77.671,291.901 77.218,292.006 76.898 C 292.112 76.578,292.371 76.130,292.583 75.902 C 292.794 75.673,293.018 75.283,293.080 75.035 C 293.142 74.787,293.318 74.445,293.471 74.275 C 293.746 73.971,294.121 73.307,294.846 71.840 C 295.048 71.431,295.326 70.984,295.463 70.846 C 295.601 70.709,295.823 70.331,295.956 70.007 C 296.090 69.682,296.298 69.304,296.418 69.167 C 296.629 68.926,297.173 67.977,297.902 66.583 C 298.093 66.217,298.393 65.705,298.568 65.447 C 298.983 64.835,299.396 64.097,299.846 63.167 C 300.045 62.754,300.305 62.304,300.423 62.167 C 300.671 61.879,301.341 60.721,301.820 59.750 C 302.001 59.383,302.340 58.825,302.574 58.509 C 302.808 58.194,303.000 57.847,303.000 57.740 C 303.000 57.633,303.145 57.360,303.323 57.135 C 303.634 56.739,304.172 55.812,304.902 54.417 C 305.093 54.050,305.393 53.538,305.568 53.280 C 305.994 52.653,306.396 51.930,306.899 50.890 C 307.128 50.418,307.401 49.978,307.505 49.914 C 307.609 49.849,307.839 49.486,308.015 49.107 C 308.362 48.360,308.909 47.372,309.525 46.378 C 310.063 45.510,310.426 44.865,310.816 44.083 C 310.999 43.717,311.340 43.158,311.574 42.843 C 311.808 42.527,312.000 42.184,312.000 42.081 C 312.000 41.977,312.223 41.598,312.495 41.238 C 312.768 40.878,312.993 40.495,312.995 40.388 C 313.002 40.096,313.839 39.156,314.236 38.993 C 315.094 38.643,359.104 38.892,359.506 39.250 M319.623 47.181 C 319.462 47.275,319.215 47.628,319.074 47.965 C 318.933 48.303,318.680 48.730,318.511 48.914 C 318.343 49.099,318.150 49.438,318.083 49.667 C 318.016 49.896,317.864 50.196,317.745 50.333 C 317.541 50.570,317.069 51.392,316.245 52.944 C 316.042 53.326,315.717 53.862,315.522 54.136 C 315.326 54.411,315.167 54.700,315.167 54.779 C 315.167 54.858,314.963 55.221,314.715 55.586 C 314.467 55.951,314.102 56.550,313.905 56.917 C 313.067 58.477,312.885 58.793,312.557 59.259 C 312.366 59.529,312.158 59.919,312.094 60.126 C 312.029 60.333,311.805 60.708,311.595 60.959 C 311.384 61.211,311.154 61.604,311.082 61.833 C 311.011 62.063,310.786 62.475,310.583 62.750 C 310.380 63.025,310.098 63.475,309.956 63.750 C 309.172 65.273,308.835 65.861,308.525 66.256 C 308.336 66.497,308.130 66.857,308.068 67.055 C 308.007 67.254,307.806 67.629,307.623 67.889 C 307.440 68.149,307.124 68.674,306.922 69.056 C 306.097 70.608,305.625 71.430,305.421 71.667 C 305.303 71.804,305.155 72.086,305.092 72.293 C 305.029 72.499,304.805 72.874,304.595 73.126 C 304.384 73.377,304.156 73.771,304.087 74.000 C 304.018 74.229,303.793 74.642,303.588 74.917 C 303.383 75.192,303.163 75.579,303.100 75.778 C 303.038 75.977,302.821 76.348,302.618 76.603 C 301.603 77.881,301.632 78.970,302.723 80.565 C 302.967 80.921,303.167 81.306,303.167 81.420 C 303.167 81.533,303.291 81.729,303.444 81.855 C 303.596 81.980,303.888 82.461,304.093 82.923 C 304.297 83.385,304.578 83.857,304.716 83.972 C 304.854 84.087,305.015 84.369,305.072 84.599 C 305.130 84.829,305.400 85.325,305.672 85.701 C 305.944 86.076,306.167 86.452,306.167 86.536 C 306.167 86.620,306.345 86.928,306.564 87.219 C 306.783 87.511,307.016 87.938,307.083 88.167 C 307.149 88.396,307.375 88.771,307.583 89.000 C 307.792 89.229,308.019 89.604,308.089 89.833 C 308.158 90.063,308.391 90.482,308.607 90.766 C 308.823 91.049,309.000 91.357,309.000 91.449 C 309.000 91.541,309.223 91.924,309.495 92.299 C 309.767 92.675,310.036 93.168,310.093 93.395 C 310.150 93.623,310.337 93.936,310.509 94.091 C 310.680 94.247,310.908 94.646,311.014 94.978 C 311.120 95.311,311.377 95.771,311.585 96.000 C 311.793 96.229,312.017 96.604,312.083 96.833 C 312.150 97.063,312.375 97.438,312.583 97.667 C 312.792 97.896,313.019 98.271,313.089 98.500 C 313.158 98.729,313.383 99.142,313.588 99.417 C 313.793 99.692,314.016 100.104,314.083 100.333 C 314.149 100.563,314.378 100.938,314.590 101.167 C 314.803 101.396,315.026 101.787,315.088 102.035 C 315.149 102.283,315.312 102.580,315.451 102.695 C 315.589 102.810,315.873 103.290,316.082 103.764 C 316.292 104.237,316.544 104.674,316.643 104.736 C 316.743 104.797,316.981 105.163,317.172 105.549 C 317.710 106.631,318.238 107.564,318.614 108.097 C 318.802 108.365,319.014 108.767,319.083 108.992 C 319.379 109.941,319.198 109.917,325.921 109.917 C 330.926 109.917,332.168 109.873,332.391 109.688 C 332.642 109.480,332.667 108.556,332.667 99.421 L 332.667 89.382 333.075 88.941 L 333.484 88.500 336.534 88.501 C 339.280 88.501,339.637 88.534,340.125 88.832 L 340.667 89.162 340.667 99.270 L 340.667 109.378 341.026 109.689 C 341.885 110.434,354.000 110.090,354.000 109.320 C 354.000 109.232,354.196 108.864,354.435 108.503 C 354.982 107.676,355.371 106.982,355.899 105.890 C 356.128 105.418,356.401 104.978,356.505 104.914 C 356.609 104.849,356.844 104.486,357.026 104.107 C 357.519 103.083,358.106 102.024,358.580 101.309 C 358.811 100.960,359.000 100.603,359.000 100.516 C 359.000 100.430,359.176 100.147,359.390 99.888 C 359.605 99.629,359.865 99.167,359.969 98.863 C 360.073 98.558,360.347 98.083,360.579 97.808 C 360.811 97.533,361.000 97.211,361.000 97.093 C 361.000 96.975,361.148 96.690,361.329 96.460 C 361.697 95.992,362.264 95.016,362.928 93.708 C 363.172 93.227,363.430 92.833,363.501 92.833 C 363.572 92.833,363.754 92.524,363.905 92.147 C 364.056 91.770,364.364 91.219,364.590 90.923 C 364.815 90.627,365.000 90.287,365.000 90.167 C 365.000 90.046,365.181 89.711,365.401 89.422 C 365.622 89.132,365.924 88.638,366.071 88.323 C 366.219 88.008,366.600 87.337,366.917 86.833 C 367.235 86.329,367.655 85.579,367.851 85.167 C 368.047 84.754,368.330 84.278,368.479 84.108 C 368.750 83.800,369.157 83.072,369.846 81.667 C 370.048 81.254,370.309 80.860,370.426 80.791 C 370.544 80.722,370.771 80.309,370.931 79.874 C 371.092 79.439,371.322 78.965,371.444 78.821 C 371.686 78.534,370.271 75.501,369.428 74.500 C 369.313 74.362,369.050 73.894,368.844 73.458 C 368.639 73.023,368.410 72.667,368.337 72.667 C 368.263 72.667,368.152 72.465,368.090 72.218 C 368.028 71.972,367.814 71.544,367.614 71.267 C 367.414 70.990,367.093 70.461,366.902 70.090 C 366.209 68.752,365.639 67.767,365.323 67.365 C 365.145 67.140,365.000 66.858,365.000 66.740 C 365.000 66.622,364.823 66.314,364.607 66.054 C 364.391 65.795,364.051 65.246,363.852 64.833 C 363.369 63.831,362.689 62.641,362.423 62.333 C 362.305 62.196,362.044 61.746,361.843 61.333 C 361.168 59.945,360.752 59.202,360.475 58.892 C 360.324 58.722,360.090 58.318,359.956 57.993 C 359.823 57.669,359.609 57.294,359.481 57.160 C 359.354 57.026,359.063 56.553,358.833 56.108 C 357.942 54.378,357.741 54.023,357.479 53.725 C 357.330 53.555,357.044 53.079,356.843 52.667 C 356.161 51.264,355.751 50.534,355.470 50.225 C 355.316 50.055,355.107 49.699,355.007 49.434 C 354.906 49.170,354.545 48.515,354.204 47.980 L 353.583 47.007 347.401 47.003 C 341.620 47.000,341.200 47.020,340.942 47.305 C 340.692 47.581,340.667 48.544,340.667 57.692 L 340.667 67.775 340.237 68.179 C 339.811 68.580,334.783 68.899,333.595 68.601 C 332.662 68.367,332.667 68.422,332.667 57.428 L 332.667 47.325 332.239 47.163 C 331.651 46.939,320.010 46.956,319.623 47.181 M332.126 57.674 L 332.169 67.932 332.649 68.508 L 333.129 69.083 336.023 69.137 C 339.303 69.198,340.157 69.113,340.701 68.672 L 341.083 68.363 341.167 57.890 L 341.250 47.417 347.379 47.373 C 353.108 47.332,353.515 47.348,353.606 47.623 C 353.857 48.385,354.188 48.972,354.416 49.060 C 354.554 49.113,354.667 49.297,354.667 49.470 C 354.667 49.643,354.850 50.039,355.073 50.350 C 355.297 50.662,355.630 51.235,355.814 51.625 C 355.998 52.015,356.224 52.333,356.318 52.333 C 356.411 52.333,356.570 52.642,356.672 53.019 C 356.773 53.395,357.027 53.864,357.235 54.060 C 357.444 54.256,357.664 54.617,357.724 54.862 C 357.784 55.107,358.021 55.530,358.250 55.803 C 358.479 56.075,358.667 56.413,358.667 56.553 C 358.667 56.693,358.846 57.020,359.064 57.280 C 359.283 57.540,359.581 58.039,359.728 58.389 C 359.874 58.738,360.133 59.150,360.304 59.304 C 360.476 59.458,360.716 59.907,360.838 60.302 C 360.960 60.697,361.197 61.093,361.363 61.183 C 361.530 61.272,361.667 61.481,361.667 61.648 C 361.667 61.814,361.851 62.206,362.076 62.517 C 362.301 62.828,362.605 63.345,362.751 63.664 C 362.897 63.984,363.152 64.396,363.319 64.581 C 363.486 64.766,363.671 65.121,363.730 65.370 C 363.789 65.619,364.009 65.994,364.218 66.203 C 364.428 66.412,364.701 66.883,364.825 67.250 C 364.949 67.617,365.189 68.015,365.358 68.134 C 365.528 68.254,365.667 68.487,365.667 68.651 C 365.667 68.816,365.853 69.206,366.081 69.517 C 366.308 69.828,366.643 70.402,366.825 70.792 C 367.006 71.181,367.227 71.500,367.314 71.500 C 367.402 71.500,367.564 71.781,367.674 72.125 C 367.784 72.469,368.042 72.938,368.249 73.167 C 368.455 73.396,368.674 73.796,368.735 74.056 C 368.797 74.316,369.031 74.713,369.257 74.939 C 369.482 75.164,369.667 75.424,369.667 75.516 C 369.667 75.790,370.195 76.740,370.422 76.874 C 371.152 77.303,370.994 79.484,370.168 80.370 C 369.977 80.575,369.777 80.932,369.724 81.163 C 369.670 81.394,369.535 81.658,369.422 81.750 C 369.172 81.954,368.667 82.911,368.667 83.181 C 368.667 83.290,368.484 83.547,368.261 83.754 C 368.039 83.961,367.778 84.419,367.682 84.773 C 367.587 85.127,367.366 85.505,367.192 85.613 C 367.018 85.721,366.824 86.016,366.760 86.269 C 366.697 86.521,366.458 86.949,366.230 87.220 C 366.002 87.491,365.771 87.934,365.717 88.204 C 365.663 88.474,365.515 88.735,365.387 88.785 C 365.094 88.897,364.667 89.709,364.667 90.153 C 364.667 90.337,364.526 90.564,364.353 90.656 C 364.181 90.748,363.913 91.145,363.757 91.537 C 363.601 91.929,363.338 92.400,363.172 92.583 C 363.007 92.767,362.815 93.104,362.746 93.333 C 362.677 93.563,362.444 93.962,362.227 94.221 C 362.010 94.480,361.784 94.893,361.724 95.138 C 361.664 95.383,361.442 95.746,361.231 95.944 C 361.020 96.143,360.797 96.518,360.735 96.777 C 360.674 97.037,360.455 97.438,360.249 97.667 C 360.042 97.896,359.782 98.370,359.670 98.720 C 359.558 99.070,359.365 99.396,359.241 99.443 C 359.117 99.491,358.926 99.804,358.817 100.140 C 358.707 100.475,358.447 100.910,358.239 101.105 C 358.031 101.300,357.788 101.722,357.699 102.044 C 357.610 102.366,357.381 102.786,357.189 102.977 C 356.998 103.168,356.793 103.533,356.733 103.787 C 356.673 104.042,356.454 104.438,356.247 104.667 C 356.040 104.896,355.816 105.271,355.750 105.500 C 355.683 105.729,355.491 106.068,355.322 106.252 C 355.154 106.437,354.897 106.849,354.751 107.169 C 354.605 107.489,354.301 108.005,354.076 108.316 C 353.851 108.628,353.667 109.013,353.667 109.172 C 353.667 109.331,353.498 109.506,353.292 109.562 C 352.800 109.693,341.773 109.697,341.430 109.566 C 341.194 109.475,341.167 108.412,341.167 99.269 C 341.167 86.653,341.652 87.833,336.460 87.833 L 333.461 87.833 332.814 88.480 L 332.167 89.127 332.167 99.294 L 332.167 109.461 331.792 109.562 C 331.299 109.694,320.858 109.697,320.200 109.565 C 319.790 109.483,319.626 109.311,319.352 108.674 C 319.166 108.240,318.901 107.792,318.765 107.679 C 318.629 107.566,318.430 107.198,318.323 106.862 C 318.216 106.525,317.956 106.084,317.745 105.882 C 317.535 105.680,317.316 105.302,317.259 105.043 C 317.203 104.784,316.974 104.361,316.752 104.102 C 316.529 103.843,316.266 103.383,316.166 103.080 C 316.066 102.777,315.890 102.493,315.774 102.449 C 315.659 102.405,315.461 102.052,315.333 101.665 C 315.205 101.278,314.966 100.877,314.800 100.774 C 314.635 100.671,314.380 100.224,314.233 99.781 C 314.086 99.339,313.864 98.937,313.741 98.890 C 313.617 98.843,313.428 98.529,313.321 98.194 C 313.213 97.858,312.988 97.432,312.821 97.248 C 312.653 97.063,312.403 96.641,312.264 96.310 C 312.126 95.978,311.915 95.670,311.797 95.624 C 311.678 95.579,311.440 95.151,311.269 94.674 C 311.097 94.197,310.858 93.768,310.736 93.722 C 310.615 93.675,310.428 93.363,310.321 93.027 C 310.214 92.691,309.956 92.229,309.749 92.000 C 309.541 91.771,309.315 91.396,309.246 91.167 C 309.177 90.938,308.944 90.538,308.727 90.279 C 308.510 90.020,308.286 89.607,308.229 89.362 C 308.172 89.117,307.995 88.804,307.837 88.667 C 307.679 88.529,307.420 88.082,307.262 87.674 C 307.104 87.265,306.840 86.836,306.676 86.721 C 306.512 86.606,306.334 86.295,306.281 86.029 C 306.228 85.764,306.003 85.330,305.782 85.065 C 305.560 84.800,305.323 84.396,305.254 84.167 C 305.185 83.938,304.991 83.599,304.822 83.414 C 304.654 83.230,304.392 82.782,304.241 82.420 C 304.089 82.058,303.863 81.684,303.737 81.589 C 303.612 81.494,303.393 81.085,303.252 80.681 C 303.111 80.276,302.855 79.847,302.684 79.726 C 302.044 79.278,302.115 77.644,302.801 77.034 C 302.977 76.878,303.218 76.487,303.338 76.167 C 303.457 75.846,303.658 75.461,303.785 75.312 C 304.038 75.013,304.626 73.964,305.144 72.885 C 305.328 72.501,305.629 72.038,305.812 71.855 C 305.995 71.671,306.219 71.252,306.311 70.922 C 306.402 70.593,306.621 70.194,306.798 70.036 C 306.976 69.879,307.218 69.487,307.337 69.167 C 307.456 68.846,307.683 68.433,307.841 68.250 C 307.999 68.067,308.180 67.748,308.242 67.541 C 308.305 67.334,308.528 66.959,308.739 66.707 C 308.949 66.456,309.177 66.063,309.246 65.833 C 309.315 65.604,309.543 65.229,309.753 65.000 C 309.964 64.771,310.212 64.300,310.306 63.953 C 310.399 63.606,310.621 63.194,310.798 63.036 C 310.976 62.879,311.218 62.487,311.336 62.167 C 311.455 61.846,311.641 61.508,311.750 61.417 C 311.859 61.325,312.106 60.894,312.298 60.458 C 312.490 60.023,312.721 59.667,312.811 59.667 C 312.901 59.667,313.064 59.385,313.174 59.042 C 313.284 58.698,313.543 58.229,313.750 58.000 C 313.957 57.771,314.214 57.309,314.321 56.973 C 314.428 56.637,314.612 56.326,314.729 56.281 C 314.846 56.236,315.080 55.836,315.249 55.391 C 315.417 54.947,315.693 54.485,315.861 54.366 C 316.029 54.246,316.167 54.038,316.167 53.903 C 316.167 53.769,316.429 53.277,316.750 52.811 C 317.071 52.344,317.333 51.825,317.333 51.657 C 317.333 51.490,317.482 51.248,317.664 51.120 C 317.846 50.993,318.108 50.571,318.245 50.182 C 318.382 49.793,318.634 49.349,318.805 49.196 C 318.976 49.042,319.213 48.601,319.332 48.216 C 319.611 47.311,319.158 47.366,326.083 47.393 L 332.083 47.417 332.126 57.674 " stroke="none" fill="#f4acac" fill-rule="evenodd"></path></g></svg>