<svg id="svg" xmlns="http://www.w3.org/2000/svg" xmlns:xlink="http://www.w3.org/1999/xlink" width="400" height="124.62311557788945" viewBox="0, 0, 400,124.62311557788945"><g id="svgg"><path id="path0" d="M5.071 4.797 L 0.000 9.868 0.000 56.728 C 0.000 113.307,4.825 124.623,28.947 124.623 C 37.693 124.623,36.265 115.413,27.257 113.723 C 23.105 112.944,18.287 109.983,15.197 106.310 L 10.050 100.194 10.050 57.534 C 10.050 8.231,9.355 10.050,28.208 10.050 C 43.904 10.050,45.003 10.747,41.126 18.245 C 38.782 22.778,38.191 34.058,38.191 74.272 L 38.191 124.623 43.216 124.623 L 48.241 124.623 48.241 75.761 C 48.241 37.937,48.854 26.062,50.952 23.192 C 56.399 15.743,58.291 30.055,58.291 78.692 L 58.291 124.623 63.317 124.623 L 68.342 124.623 68.253 76.884 C 68.188 41.230,67.452 27.144,65.348 21.238 C 61.587 10.680,62.323 10.050,78.440 10.050 C 96.787 10.050,96.482 9.269,96.482 56.348 C 96.482 103.265,92.403 114.573,75.477 114.573 C 73.494 114.573,72.362 116.400,72.362 119.598 C 72.362 129.890,91.169 123.598,101.323 109.909 C 105.241 104.626,105.569 101.215,106.141 59.840 C 106.977 -0.574,106.600 -1.269,74.113 0.756 C 52.748 2.088,55.613 2.089,29.694 0.742 C 10.828 -0.238,9.963 -0.096,5.071 4.797 M245.226 24.678 C 245.226 58.088,245.072 58.291,219.832 58.291 C 201.237 58.291,200.525 58.463,194.648 64.340 L 188.600 70.388 189.275 93.667 C 190.173 124.629,190.166 124.623,223.941 124.623 C 240.317 124.623,249.242 123.823,250.854 122.211 C 255.696 117.370,254.151 0.000,249.246 0.000 C 245.444 0.000,245.226 1.340,245.226 24.678 M119.208 63.138 C 112.060 69.281,109.331 110.346,115.449 119.684 C 119.192 125.395,168.158 127.337,175.049 122.047 C 183.246 115.753,184.935 106.533,177.889 106.533 C 175.126 106.533,172.864 107.373,172.864 108.399 C 172.864 114.680,166.288 116.583,144.580 116.583 L 122.613 116.583 122.613 109.691 C 122.613 98.383,126.271 96.482,148.037 96.482 C 172.239 96.482,178.894 91.778,178.894 74.670 C 178.894 59.327,176.986 58.291,148.712 58.291 C 126.390 58.291,124.483 58.605,119.208 63.138 M267.696 63.323 L 261.307 68.699 261.307 91.727 C 261.307 123.515,262.389 124.623,293.467 124.623 C 324.376 124.623,325.628 123.379,325.628 92.666 C 325.628 61.470,323.904 59.554,295.009 58.621 C 274.796 57.969,273.869 58.129,267.696 63.323 M338.090 60.704 C 336.764 62.030,335.678 68.204,335.678 74.423 C 335.678 92.007,340.139 95.140,367.046 96.457 C 390.091 97.585,392.409 98.827,391.478 109.548 L 390.955 115.578 371.119 116.156 C 350.432 116.759,341.709 114.189,341.709 107.491 C 341.709 105.632,339.750 104.523,336.466 104.523 C 331.771 104.523,331.358 105.101,332.521 110.050 C 335.407 122.334,341.224 124.623,369.559 124.623 C 399.408 124.623,400.000 124.306,400.000 108.319 C 400.000 90.695,393.962 86.432,369.002 86.432 C 347.937 86.432,342.850 83.700,344.070 73.042 L 344.724 67.337 363.113 66.761 C 380.726 66.210,381.673 66.402,385.513 71.284 C 390.971 78.223,397.788 78.240,396.463 71.312 C 394.231 59.636,347.627 51.167,338.090 60.704 M244.351 113.953 C 243.102 117.210,208.791 117.664,202.883 114.502 C 199.443 112.661,198.995 110.140,198.995 92.638 C 198.995 67.871,199.190 67.673,224.931 66.332 L 244.221 65.327 244.791 88.325 C 245.104 100.974,244.906 112.507,244.351 113.953 M168.442 68.744 C 178.110 78.412,167.689 85.905,143.115 86.955 L 122.411 87.840 123.015 79.646 C 123.486 73.248,124.720 70.896,128.643 68.921 C 135.162 65.639,165.204 65.505,168.442 68.744 M314.459 72.809 C 319.428 79.903,318.813 107.318,313.568 112.563 C 308.141 117.989,278.807 118.491,273.023 113.256 C 268.004 108.715,267.604 76.402,272.505 71.500 C 277.989 66.016,310.410 67.028,314.459 72.809 " stroke="none" fill="#000000" fill-rule="evenodd"></path></g></svg>