<svg id="svg" xmlns="http://www.w3.org/2000/svg" xmlns:xlink="http://www.w3.org/1999/xlink" width="400" height="164.38356164383563" viewBox="0, 0, 400,164.38356164383563"><g id="svgg"><path id="path0" d="M79.795 80.736 C 35.908 124.962,-0.000 161.567,-0.000 162.080 C -0.000 162.594,18.339 163.012,40.753 163.009 L 81.507 163.005 157.427 86.171 L 233.348 9.338 309.254 86.176 L 385.161 163.014 392.694 163.014 C 396.838 163.014,400.023 162.440,399.772 161.739 C 399.521 161.038,363.363 124.360,319.421 80.232 L 239.526 0.000 199.558 0.163 L 159.589 0.325 79.795 80.736 M152.055 131.507 L 152.055 163.014 159.589 163.014 L 167.123 163.014 167.123 150.685 L 167.123 138.356 170.890 138.361 C 174.165 138.365,175.633 139.975,182.129 150.690 L 189.601 163.014 198.225 163.014 C 202.968 163.014,206.849 162.769,206.849 162.469 C 206.849 162.169,203.459 156.412,199.315 149.675 C 191.212 136.501,190.682 134.961,193.828 133.754 C 197.256 132.439,201.359 124.279,201.365 118.768 C 201.379 104.680,193.383 100.074,168.836 100.030 L 152.055 100.000 152.055 131.507 M272.603 108.059 C 267.231 110.043,266.383 110.904,266.009 114.757 C 265.632 118.637,265.088 119.178,261.557 119.178 C 257.873 119.178,257.534 119.582,257.534 123.973 C 257.534 128.355,257.877 128.767,261.526 128.767 L 265.518 128.767 265.978 144.634 C 266.528 163.588,267.109 164.384,280.399 164.384 L 289.041 164.384 289.041 159.589 C 289.041 155.214,288.694 154.795,285.078 154.795 C 280.070 154.795,279.452 153.128,279.452 139.614 L 279.452 128.767 284.247 128.767 C 288.813 128.767,289.041 128.539,289.041 123.973 C 289.041 119.420,288.803 119.178,284.318 119.178 C 279.635 119.178,279.592 119.122,279.181 112.481 L 278.767 105.783 272.603 108.059 M178.477 111.847 C 192.497 114.164,186.741 127.397,171.713 127.397 L 167.123 127.397 167.123 119.178 C 167.123 110.034,167.202 109.983,178.477 111.847 M221.233 119.667 C 209.656 125.024,205.008 140.054,210.909 153.054 C 218.259 169.245,245.062 168.867,252.316 152.469 C 261.587 131.510,241.485 110.295,221.233 119.667 M308.904 118.812 C 296.182 121.997,289.769 140.677,296.768 154.163 C 304.265 168.609,329.927 168.125,337.327 153.397 C 347.176 133.794,330.434 113.421,308.904 118.812 M236.364 130.760 C 243.660 138.056,239.797 155.383,231.064 154.529 C 220.458 153.492,220.884 127.397,231.507 127.397 C 232.329 127.397,234.514 128.910,236.364 130.760 M322.945 131.222 C 325.402 134.348,325.122 148.042,322.525 151.750 C 318.194 157.934,310.448 154.600,308.805 145.846 C 306.255 132.251,315.907 122.268,322.945 131.222 " stroke="none" fill="#000000" fill-rule="evenodd"></path></g></svg>